<svg width="95" height="68" fill="none" xmlns="http://www.w3.org/2000/svg"><path d="M15.392 30.998L0 33.442l2.444 15.392 15.392-2.444-2.444-15.392z" fill="#EDE4E6"/><path d="M11.688 17.453c.108.514.359.551.466.551.108 0 .359-.037.466-.55L15.992.004h8.318l-5.844 21.857c-.717 2.72-2.367 4.152-6.31 4.152-3.945 0-5.594-1.47-6.31-4.152L0 .005h8.319l3.37 17.448zM49.136 3.13C50.032.302 52.006.007 54.873.007c2.869 0 4.84.295 5.736 3.123l7.135 22.886H59.21l-1.254-5.29h-6.167l-1.255 5.29H42L49.136 3.13zm3.658 11.938h4.16l-1.757-6.723c-.036-.22-.144-.551-.323-.551-.18 0-.287.33-.323.551l-1.757 6.723zM72.001 4.045c0-2.571 1.434-4.04 3.945-4.04h11.653c5.736 0 6.453 3.233 6.453 8.743 0 4.041-.502 9.147-4.805 9.147h-.215v.147l5.522 7.678h-8.676l-3.479-5.95c-.788-1.323-1.291-2.387-1.291-3.857v-.918c0-2.203.394-2.902 2.545-2.902h.143c2.15 0 2.51-.698 2.51-2.902s-.36-2.792-2.51-2.792h-2.473c-1.077 0-1.579.514-1.579 1.616V25.72H72V4.045h.001zM29 25.719V.005h8.104V25.72H29z" fill="#EB8E51"/><path d="M19 34.635c0-1.188.543-1.634 1.703-1.634h3.371c2.32 0 2.971 1.578 2.971 3.807 0 2.304-.561 3.9-2.825 3.9h-.78v.093l3.696 5.2H25.92l-3.424-4.866c-.145-.204-.345-.39-.345-.669v-.223c0-.279.163-.428.435-.428h1.576c1.74 0 1.831-1.355 1.831-3.008 0-1.746-.218-2.915-2.102-2.915h-3.189c-.543 0-.724.185-.724.742v11.364H19V34.635zm17.222 11.366V33.893H32V33h9.42v.892H37.2V46h-.977zM8.837 67C4.724 67 4 64.028 4 60.5S4.67 54 9.018 54h2.916v.893H9.018c-3.262 0-3.968 2.079-3.968 5.608 0 3.527.635 5.608 3.805 5.608h3.28V67H8.836v0zm31.714-1.152c0 .874-.38 1.449-1.159 1.449-.579 0-.96-.205-1.268-.947l-4.457-10.975c-.054-.15-.18-.316-.38-.316-.128 0-.309.055-.309.371v11.718H32v-11.83c0-1.28.978-1.317 1.196-1.317.707 0 1.05.37 1.25.872l4.492 11.031c.073.186.2.335.398.335.236 0 .236-.205.236-.335V54.15h.978v11.7h.001zm8.926-.055c.073.26.18.353.308.353.127 0 .235-.093.308-.353L53.534 54h1.033l-3.679 12.294c-.109.372-.381.854-1.105.854s-.997-.483-1.104-.854L45 54.001h1.033l3.444 11.792zm23.723.315h4.98c.761 0 1.487-.409 1.487-2.228 0-.853-.326-1.3-1.63-2.099l-2.88-1.783c-1.25-.762-2.157-1.43-2.157-3.064 0-1.857.87-2.934 2.862-2.934h4.258v.892h-4.258c-1.322 0-1.81.556-1.81 2.043 0 .835.217 1.3 1.322 2.024l2.755 1.783c1.358.872 2.59 1.43 2.59 3.138 0 1.597-.579 3.12-2.537 3.12H73.2v-.892h-.002zM7.77 34.375C8.024 33.577 8.404 33 9.183 33c.744 0 1.16.595 1.413 1.374l3.769 11.773h-1.052L12.1 42.36H6.265l-1.214 3.788H4l3.77-11.773zm-1.232 7.093h5.29l-2.12-6.796c-.108-.37-.253-.742-.525-.742-.27 0-.417.372-.526.742l-2.119 6.796zM20.77 55.375c.254-.798.634-1.374 1.413-1.374.744 0 1.16.595 1.413 1.374l3.769 11.773h-1.052L25.1 63.361h-5.835l-1.213 3.787H17l3.77-11.773zm-1.232 7.093h5.29l-2.12-6.796c-.108-.37-.253-.742-.525-.742-.27 0-.417.372-.526.742l-2.119 6.796zm42.232-7.093c.254-.798.634-1.374 1.413-1.374.744 0 1.16.594 1.413 1.374l3.769 11.773h-1.052L66.1 63.36h-5.835l-1.214 3.788H58l3.77-11.773zm-1.232 7.093h5.29l-2.12-6.796c-.108-.37-.253-.742-.525-.742-.27 0-.417.372-.526.742l-2.119 6.796z" fill="#363634" stroke="#363634" stroke-width="1.2" stroke-miterlimit="10"/></svg>