<svg width="93" height="13" viewBox="0 0 93 13" fill="none" xmlns="http://www.w3.org/2000/svg">
<path d="M13.8269 12.2046V6.99746C13.8269 5.03261 12.5962 3.70999 10.6155 3.69263C9.46665 3.61696 8.36824 4.1835 7.74847 5.17147C7.18359 4.21266 6.14894 3.64542 5.05189 3.69263C4.09769 3.64577 3.19019 4.1158 2.66554 4.92847V3.88704H0.889404V12.2046H2.68258V7.59802C2.68258 6.15389 3.46667 5.39017 4.6803 5.39017C5.89393 5.39017 6.45643 6.17125 6.45643 7.58066V12.2046H8.23938V7.59802C8.23938 6.15389 9.05756 5.39017 10.2371 5.39017C11.4166 5.39017 12.0303 6.17125 12.0303 7.58066V12.2046H13.8269ZM40.3597 3.89398H37.4586V1.37371H35.6654V3.89398H34.0086V5.54639H35.6654V9.33374C35.6654 11.2639 36.3984 12.4129 38.4984 12.4129C39.2828 12.4153 40.0519 12.1928 40.7177 11.7707L40.2063 10.2224C39.7297 10.5116 39.1891 10.6727 38.6347 10.6911C37.7484 10.6911 37.4552 10.1356 37.4552 9.3025V5.54639H40.3563L40.3597 3.89398ZM55.5063 3.68569C54.624 3.65966 53.7987 4.12726 53.3552 4.90417V3.89398H51.5961V12.2046H53.3722V7.54595C53.3722 6.15736 53.9517 5.40753 55.1142 5.40753C55.4947 5.40198 55.8721 5.4728 56.2256 5.61582L56.771 3.91134C56.365 3.76345 55.9375 3.68708 55.5063 3.68569ZM32.6075 4.55355C31.6018 3.94536 30.4458 3.64403 29.2768 3.68569C27.2109 3.68569 25.8677 4.69588 25.8677 6.34482C25.8677 7.70216 26.8564 8.53531 28.6836 8.79567L29.5189 8.91717C30.4904 9.05603 30.9541 9.31639 30.9541 9.78503C30.9541 10.4272 30.3064 10.7952 29.0927 10.7952C28.1136 10.8268 27.1526 10.521 26.3655 9.92736L25.5575 11.3333C26.5918 12.0696 27.831 12.4483 29.0927 12.4129C31.4484 12.4129 32.8154 11.2812 32.8154 9.70172C32.8154 8.24023 31.7382 7.47652 29.9655 7.21616L29.1302 7.09466C28.3632 6.99051 27.7461 6.8343 27.7461 6.27887C27.7461 5.67136 28.3257 5.30686 29.3007 5.30686C30.1939 5.3204 31.0693 5.56514 31.8439 6.01851L32.6075 4.55355ZM80.171 3.68569C79.2887 3.65966 78.4634 4.12726 78.0199 4.90417V3.89398H76.2608V12.2046H78.0369V7.54595C78.0369 6.15736 78.6164 5.40753 79.7789 5.40753C80.1594 5.40198 80.5368 5.4728 80.8903 5.61582L81.4357 3.91134C81.0297 3.76345 80.6022 3.68708 80.171 3.68569ZM57.2995 8.04931C57.2995 10.5696 59.0245 12.4129 61.6529 12.4129C62.7185 12.4667 63.7658 12.1126 64.5881 11.4201L63.7358 9.9586C63.1218 10.4349 62.3735 10.6966 61.6017 10.705C60.1835 10.705 59.1438 9.6427 59.1438 8.04583C59.1438 6.44897 60.187 5.40406 61.6017 5.3867C62.3735 5.39503 63.1218 5.65678 63.7358 6.13306L64.5881 4.67158C63.7658 3.97903 62.7185 3.62494 61.6529 3.67875C59.0245 3.67875 57.2995 5.52209 57.2995 8.04236V8.04931ZM73.929 8.04931V3.88356H72.1528V4.89376C71.5385 4.0863 70.5778 3.63223 69.5756 3.67528C67.2881 3.67528 65.4847 5.50126 65.4847 8.03889C65.4847 10.5765 67.2778 12.4025 69.5756 12.4025C70.5778 12.4456 71.5385 11.9915 72.1528 11.184V12.1907H73.929V8.04931ZM67.3222 8.04931C67.3222 6.58782 68.2596 5.39017 69.7971 5.39017C71.2664 5.39017 72.2551 6.53922 72.2551 8.04931C72.2551 9.55939 71.2664 10.7084 69.7971 10.7084C68.2596 10.7084 67.3222 9.50731 67.3222 8.04931ZM45.8927 3.68569C43.5063 3.68569 41.8291 5.4596 41.8291 8.04931C41.8291 10.6911 43.5711 12.4129 46.012 12.4129C47.2307 12.4563 48.4226 12.0411 49.3597 11.2465L48.4904 9.90653C47.8123 10.4588 46.9723 10.7643 46.104 10.7744C44.9586 10.7744 43.9188 10.2363 43.6631 8.74012H49.7245C49.7415 8.51448 49.7586 8.28884 49.7586 8.04583C49.7586 5.45613 48.1699 3.68222 45.8824 3.68222L45.8927 3.68569ZM45.8586 5.30339C47.004 5.30339 47.737 6.03239 47.9245 7.3203H43.6938C43.8813 6.11918 44.5972 5.30339 45.862 5.30339H45.8586ZM90.3982 8.04931V0.554443H88.6221V4.9007C88.0078 4.09324 87.0471 3.63917 86.0448 3.68222C83.7573 3.68222 81.9539 5.5082 81.9539 8.04583C81.9539 10.5835 83.7471 12.4094 86.0448 12.4094C87.0471 12.4525 88.0078 11.9984 88.6221 11.191V12.1977H90.3982V8.04931ZM92.4743 11.4374C92.5446 11.4371 92.6141 11.4513 92.6789 11.4791C92.7413 11.5062 92.7979 11.5451 92.8459 11.5937C92.8937 11.6412 92.9318 11.6978 92.9584 11.7603C93.0137 11.8912 93.0137 12.039 92.9584 12.1699C92.9318 12.2324 92.8937 12.2886 92.8459 12.3365C92.7979 12.3848 92.7409 12.4237 92.6789 12.4511C92.6141 12.4792 92.5446 12.4935 92.4743 12.4928C92.262 12.4955 92.0683 12.3681 91.9834 12.1699C91.9286 12.039 91.9286 11.8912 91.9834 11.7603C92.0366 11.6329 92.1372 11.5319 92.263 11.4791C92.3322 11.4499 92.4065 11.4357 92.4812 11.4374H92.4743ZM92.4743 12.3747C92.5282 12.3754 92.5817 12.365 92.6312 12.3435C92.6782 12.3227 92.7208 12.2935 92.7573 12.2567C92.9151 12.0956 92.9151 11.8346 92.7573 11.6735C92.7212 11.6367 92.6782 11.6072 92.6312 11.5867C92.5814 11.5655 92.5282 11.5548 92.4743 11.5555C92.4195 11.5548 92.3649 11.5652 92.3141 11.5867C92.1082 11.6763 92.0124 11.9189 92.1004 12.129C92.1205 12.1765 92.1488 12.2199 92.1846 12.2567C92.2217 12.2938 92.2657 12.3234 92.3141 12.3435C92.367 12.3661 92.4239 12.3765 92.4812 12.3747H92.4743ZM92.505 11.7152C92.5562 11.7117 92.6066 11.7263 92.6482 11.7568C92.6823 11.7846 92.7014 11.8269 92.6993 11.8714C92.7007 11.9092 92.6857 11.946 92.6584 11.972C92.6271 12.0005 92.5875 12.0175 92.5459 12.0206L92.7028 12.2046H92.58L92.4334 12.0206H92.3857V12.2046H92.2834V11.7186L92.505 11.7152ZM92.3857 11.8054V11.9373H92.505C92.5262 11.9436 92.5487 11.9436 92.5698 11.9373C92.5855 11.9266 92.5947 11.9082 92.5937 11.8887C92.5947 11.8693 92.5855 11.8509 92.5698 11.8401C92.5487 11.8339 92.5262 11.8339 92.505 11.8401L92.3857 11.8054ZM83.7982 8.04931C83.7982 6.58782 84.7357 5.39017 86.2732 5.39017C87.7425 5.39017 88.7312 6.53922 88.7312 8.04931C88.7312 9.55939 87.7425 10.7084 86.2732 10.7084C84.7357 10.7084 83.7982 9.50731 83.7982 8.04931ZM23.8325 8.04931V3.88356H22.0564V4.89376C21.4421 4.09324 20.4862 3.64369 19.4893 3.68569C17.2019 3.68569 15.3984 5.51168 15.3984 8.04931C15.3984 10.5869 17.1916 12.4129 19.4893 12.4129C20.4916 12.456 21.4523 12.0019 22.0666 11.1944V12.2012H23.8427L23.8325 8.04931ZM17.2257 8.04931C17.2257 6.58782 18.1632 5.39017 19.7007 5.39017C21.17 5.39017 22.1587 6.53922 22.1587 8.04931C22.1587 9.55939 21.17 10.7084 19.7007 10.7084C18.1632 10.7084 17.2257 9.51079 17.2257 8.04931Z" fill="white"/>
</svg>
