<svg width="165" height="13" viewBox="0 0 165 13" fill="none" xmlns="http://www.w3.org/2000/svg">
<path opacity="0.5" d="M5.8608 12.1705C8.97692 12.1705 11.4964 9.65092 11.4858 6.54545C11.4751 3.43999 8.97692 0.920454 5.8608 0.920454C2.76598 0.920454 0.246449 3.43999 0.235796 6.54545C0.225142 9.65092 2.76598 12.1705 5.8608 12.1705ZM5.8608 10.9347C3.43714 10.9347 1.46094 8.95845 1.47159 6.55078C1.48224 4.12713 3.4478 2.15625 5.8608 2.15625C8.28445 2.15625 10.2393 4.11648 10.25 6.55078C10.2607 8.9691 8.2951 10.9347 5.8608 10.9347ZM2.75 6.54545C2.75 8.29261 4.1669 9.70952 5.91406 9.70952C7.42685 9.70952 8.58807 8.64418 8.79048 7.22727H7.50142C7.35227 7.95703 6.73438 8.47372 5.91406 8.47372C4.84872 8.47372 3.9858 7.6108 3.9858 6.54545C3.9858 5.48011 4.84872 4.61719 5.91406 4.61719C6.73438 4.61719 7.46413 5.13388 7.60795 5.86364H8.89702C8.6946 4.44673 7.42685 3.38139 5.91406 3.38139C4.1669 3.38139 2.75 4.7983 2.75 6.54545ZM18.0736 12H24.9557V10.8281H19.8847V10.7429L22.335 8.12216C24.21 6.11399 24.7639 5.17649 24.7639 3.96733C24.7639 2.28409 23.4003 0.941761 21.4827 0.941761C19.5704 0.941761 18.1162 2.24148 18.1162 4.15909H19.3733C19.3733 2.91797 20.1776 2.09233 21.4401 2.09233C22.6226 2.09233 23.5281 2.81676 23.5281 3.96733C23.5281 4.97408 22.9369 5.71982 21.6744 7.09943L18.0736 11.0412V12ZM30.7139 12.1491C33.1215 12.1491 34.5065 10.109 34.5065 6.54545C34.5065 3.00852 33.1002 0.941761 30.7139 0.941761C28.3275 0.941761 26.9213 3.00852 26.9213 6.54545C26.9213 10.109 28.3062 12.1491 30.7139 12.1491ZM30.7139 10.9773C29.1265 10.9773 28.1997 9.38459 28.1997 6.54545C28.1997 3.71165 29.1372 2.09233 30.7139 2.09233C32.2906 2.09233 33.2281 3.71165 33.2281 6.54545C33.2281 9.38459 32.3012 10.9773 30.7139 10.9773ZM36.5306 12H43.4127V10.8281H38.3417V10.7429L40.792 8.12216C42.667 6.11399 43.221 5.17649 43.221 3.96733C43.221 2.28409 41.8573 0.941761 39.9397 0.941761C38.0274 0.941761 36.5732 2.24148 36.5732 4.15909H37.8303C37.8303 2.91797 38.6347 2.09233 39.8971 2.09233C41.0796 2.09233 41.9852 2.81676 41.9852 3.96733C41.9852 4.97408 41.3939 5.71982 40.1315 7.09943L36.5306 11.0412V12ZM49.4479 1.09091H48.1269L45.3996 2.90199V4.24432L48.0629 2.47585H48.1269V12H49.4479V1.09091ZM57.4433 1.09091H56.0583L60.064 12H61.4276L65.4333 1.09091H64.0484L60.8097 10.2741H60.6819L57.4433 1.09091ZM68.4536 1.09091H67.1325V12H68.4536V1.09091ZM71.5497 12L72.647 8.91051H77.0575L78.1548 12H79.5398L75.5341 1.09091H74.1705L70.1648 12H71.5497ZM73.0625 7.73864L74.8097 2.81676H74.8949L76.642 7.73864H73.0625ZM81.239 12H82.56V7.73864H84.9464C85.0423 7.73864 85.1328 7.73864 85.2234 7.73331L87.5245 12H89.0586L86.5923 7.49361C87.9826 7.01953 88.6325 5.88494 88.6325 4.43608C88.6325 2.50781 87.4819 1.09091 84.9251 1.09091H81.239V12ZM82.56 6.54545V2.26278H84.8825C86.6509 2.26278 87.3327 3.12571 87.3327 4.43608C87.3327 5.74645 86.6509 6.54545 84.9038 6.54545H82.56ZM99.6121 4.5C99.2073 2.26278 97.4175 0.941761 95.2229 0.941761C92.4317 0.941761 90.4076 3.09375 90.4076 6.54545C90.4076 9.99716 92.4317 12.1491 95.2229 12.1491C97.4175 12.1491 99.2073 10.8281 99.6121 8.59091H98.2911C97.9715 10.1037 96.6718 10.9134 95.2229 10.9134C93.2414 10.9134 91.686 9.37926 91.686 6.54545C91.686 3.71165 93.2414 2.17756 95.2229 2.17756C96.6718 2.17756 97.9715 2.98722 98.2911 4.5H99.6121ZM102.194 12L103.292 8.91051H107.702L108.799 12H110.184L106.179 1.09091H104.815L100.809 12H102.194ZM103.707 7.73864L105.454 2.81676H105.539L107.287 7.73864H103.707ZM120.534 1.09091H119.234V9.67756H119.128L113.162 1.09091H111.884V12H113.205V3.43466H113.311L119.256 12H120.534V1.09091ZM123.625 1.09091H122.24L126.246 12H127.609L131.615 1.09091H130.23L126.991 10.2741H126.864L123.625 1.09091ZM132.824 12L133.921 8.91051H138.332L139.429 12H140.814L136.809 1.09091H135.445L131.439 12H132.824ZM134.337 7.73864L136.084 2.81676H136.169L137.916 7.73864H134.337ZM148.479 3.81818H149.758C149.699 2.17223 148.181 0.941761 146.072 0.941761C143.984 0.941761 142.343 2.15625 142.343 3.98864C142.343 5.45881 143.408 6.33239 145.113 6.82244L146.455 7.20597C147.606 7.52557 148.628 7.9304 148.628 9.01705C148.628 10.2102 147.478 10.9986 145.965 10.9986C144.665 10.9986 143.515 10.4233 143.408 9.1875H142.045C142.172 10.9773 143.621 12.1918 145.965 12.1918C148.479 12.1918 149.907 10.8068 149.907 9.03835C149.907 6.9929 147.968 6.33239 146.839 6.03409L145.731 5.7358C144.921 5.52273 143.621 5.09659 143.621 3.92472C143.621 2.88068 144.58 2.11364 146.029 2.11364C147.35 2.11364 148.351 2.74219 148.479 3.81818ZM160.005 9.46449C162.359 9.46449 164.266 7.55753 164.266 5.20312C164.266 2.84872 162.359 0.941761 160.005 0.941761C157.651 0.941761 155.744 2.84872 155.744 5.20312C155.744 7.55753 157.651 9.46449 160.005 9.46449ZM160.005 8.44176C158.215 8.44176 156.766 6.9929 156.766 5.20312C156.766 3.41335 158.215 1.96449 160.005 1.96449C161.795 1.96449 163.244 3.41335 163.244 5.20312C163.244 6.9929 161.795 8.44176 160.005 8.44176ZM158.513 7.12074H159.376V5.78906H160.234L160.921 7.12074H161.869L161.065 5.5973C161.411 5.38423 161.71 4.99006 161.71 4.44673C161.71 3.59446 160.985 3.18963 160.506 3.18963H158.513V7.12074ZM159.376 5.14986V3.82884H160.197C160.399 3.82884 160.761 3.96733 160.761 4.44673C160.761 4.91548 160.41 5.14986 160.175 5.14986H159.376Z" fill="white"/>
</svg>
