<svg width="56" height="52" viewBox="0 0 56 52" fill="none" xmlns="http://www.w3.org/2000/svg">
<path opacity="0.2" d="M51.6668 46.9271H6.14307V13.1062H51.6668V46.9271Z" fill="url(#paint0_linear_1776_422)"/>
<path d="M19.457 10.3965C19.9235 9.40022 20.5247 8.5337 21.1548 7.69473C21.798 6.86821 22.4553 6.05501 23.2455 5.36891C24.0349 4.6828 24.9503 4.11668 25.6976 3.38969C26.4476 2.66537 27.0926 1.84062 27.6816 0.961662L27.9196 0.607056L28.3791 0.961662C29.2131 1.60511 30.0156 2.27966 30.7594 3.00931C31.5155 3.7283 32.276 4.44196 32.9648 5.22493C33.65 6.01147 34.302 6.82999 34.9137 7.68674C35.5228 8.54614 36.1118 9.42511 36.6036 10.3965L36.4767 10.5183C35.5508 9.96279 34.7212 9.31401 33.9117 8.64657C33.1057 7.97646 32.339 7.26814 31.6057 6.52693C30.8767 5.78306 30.2186 4.96987 29.5561 4.162C28.8814 3.3657 28.2662 2.51251 27.6816 1.6291H28.3782C27.5494 2.27788 26.7758 2.97998 26.1081 3.78251C25.4368 4.58238 24.9336 5.5431 24.3053 6.38385C23.6769 7.22548 22.9164 7.93914 22.1411 8.63946C21.3526 9.32646 20.5361 9.98768 19.5839 10.5183L19.457 10.3965Z" fill="#1E2533"/>
<path d="M51.7293 46.9894C47.9119 47.1191 44.0491 47.256 40.125 47.3395C36.2114 47.4355 32.2768 47.5448 28.3036 47.5981C24.3358 47.6577 20.3495 47.7048 16.358 47.7075C12.3674 47.7243 8.36627 47.6373 4.39315 47.5377L3.77881 47.5226L3.79194 46.928C3.92758 40.8473 4.12361 34.7657 4.12361 28.6849C4.13499 25.6446 4.08948 22.6042 4.07461 19.5629L3.91445 10.4401L3.9057 9.96548L4.39315 9.95392C12.272 9.75485 20.1509 9.6322 28.0297 9.57977L39.8484 9.49356C43.7883 9.47756 47.7273 9.49622 51.6672 9.53266L52.5633 9.54066L52.5607 10.4401C52.551 13.5346 52.481 16.6266 52.4312 19.7096L52.25 28.9285L51.7293 46.9894ZM51.6059 46.8641L51.0843 28.4379L50.9032 19.4136C50.8542 16.4159 50.7833 13.4262 50.7736 10.4401L51.6672 11.3475C47.7273 11.383 43.7883 11.4017 39.8484 11.3866L28.0306 11.3012C20.1517 11.2488 12.2729 11.1262 4.39403 10.9271L4.87273 10.441L4.7117 19.5621C4.6977 22.6024 4.6522 25.6428 4.6627 28.6841C4.6627 34.7648 4.85873 40.8464 4.99437 46.9272L4.39315 46.3166C8.29889 46.2171 12.1766 46.13 16.0649 46.1468C19.9522 46.1486 23.8448 46.1957 27.7558 46.2562C31.6624 46.3095 35.6066 46.4188 39.5719 46.5148C43.5275 46.5974 47.5435 46.7343 51.6059 46.8641Z" fill="#1E2533"/>
<path d="M46.8855 41.8729H9.20654V15.4943H46.8855V41.8729Z" fill="white"/>
<path d="M46.9475 41.936C43.9379 42.0746 40.867 42.2017 37.7559 42.3066C34.6439 42.4106 31.4934 42.4932 28.3246 42.5554C25.1513 42.6043 21.9685 42.663 18.7725 42.6488C15.5773 42.6443 12.3778 42.5359 9.20721 42.4355L8.63574 42.4177L8.65237 41.8729L8.8589 35.2785C8.91054 33.0806 8.93591 30.8819 8.94204 28.684C8.93941 26.4862 8.92629 24.2875 8.88778 22.0896L8.72676 15.4952L8.71625 15.0242L9.20721 15.0073C15.4872 14.7957 21.7672 14.6829 28.0463 14.6251C31.1863 14.5958 34.3263 14.5353 37.4662 14.546C40.6062 14.5265 43.7462 14.5753 46.8862 14.6002L47.778 14.6073L47.7657 15.4934C47.7053 19.994 47.6056 24.4954 47.4463 28.9187L47.2118 35.5033L46.9475 41.936ZM46.8232 41.8107L46.3244 28.4485C46.1651 24.0795 46.0662 19.7869 46.005 15.4943L46.8845 16.3875C43.7445 16.4124 40.6045 16.4612 37.4645 16.4417C34.3245 16.4524 31.1845 16.3919 28.0445 16.3626C21.7645 16.3048 15.4846 16.192 9.20546 15.9804L9.68416 15.4943L9.52313 22.0887C9.48462 24.2866 9.4715 26.4853 9.46887 28.6831C9.475 30.881 9.50038 33.0797 9.55201 35.2776L9.75854 41.872L9.20458 41.3094C12.3131 41.209 15.3935 41.1006 18.4784 41.0961C21.5624 41.0819 24.6586 41.1406 27.7654 41.1895C30.8765 41.2526 34.006 41.3352 37.1731 41.4383L46.8232 41.8107Z" fill="url(#paint1_linear_1776_422)"/>
<defs>
<linearGradient id="paint0_linear_1776_422" x1="6.14315" y1="30.0166" x2="51.667" y2="30.0166" gradientUnits="userSpaceOnUse">
<stop offset="1.58946e-07" stop-color="#FC8C5F"/>
<stop offset="1" stop-color="#FA7846"/>
</linearGradient>
<linearGradient id="paint1_linear_1776_422" x1="8.33128" y1="28.5964" x2="47.7605" y2="28.5964" gradientUnits="userSpaceOnUse">
<stop offset="1.58946e-07" stop-color="#FC8C5F"/>
<stop offset="1" stop-color="#FA7846"/>
</linearGradient>
</defs>
</svg>
