<svg width="65" height="65" viewBox="0 0 65 65" fill="none" xmlns="http://www.w3.org/2000/svg">
<g clip-path="url(#clip0_1787_591)">
<path opacity="0.2" d="M34.8626 58.7336L6.71567 32.4903L26.1685 11.6265L54.3154 37.8698L34.8626 58.7336Z" fill="url(#paint0_linear_1787_591)"/>
<path d="M34.8657 58.8081C32.4308 56.6875 29.9637 54.5451 27.4894 52.3345C25.0145 50.1376 22.5188 47.9369 20.0316 45.6793C17.5441 43.4287 15.0523 41.1598 12.5829 38.8604C10.1058 36.5704 7.68202 34.2101 5.28272 31.8583L4.91156 31.4948L5.26166 31.1356C8.84299 27.4626 12.4622 23.8239 15.9596 20.0727C17.7154 18.2037 19.436 16.3019 21.176 14.4172L26.3242 8.69702L26.5918 8.3992L26.8998 8.67308C31.8858 13.0922 36.8277 17.5585 41.7293 22.0682L49.0863 28.8282C51.5315 31.0895 53.9562 33.3718 56.3713 35.6655L56.9207 36.187L56.4018 36.7404C54.6159 38.6438 52.7943 40.5109 50.9902 42.384L45.5757 47.9666L34.8657 58.8081ZM34.8615 58.6597L45.1372 46.992L50.2156 41.3206C51.9095 39.4431 53.5853 37.5579 55.2969 35.7102L55.3274 36.785C52.871 34.5357 50.4248 32.2765 47.9975 29.996L40.7397 23.1306C35.8984 18.5563 31.0976 13.9387 26.3406 9.27392L26.9162 9.24999L21.5705 14.7839C19.8131 16.6514 18.0362 18.5008 16.2935 20.383C12.796 24.1341 9.41922 27.9988 6.00563 31.8282L5.98507 31.105C8.45721 33.2951 10.9049 35.4768 13.2992 37.7287C15.7017 39.9707 18.0814 42.2438 20.4648 44.5357C22.8495 46.8206 25.2253 49.1618 27.6218 51.5069C30.02 53.8382 32.4243 56.2378 34.8615 58.6597Z" fill="#1E2533"/>
<path d="M34.8139 52.8595L11.5172 31.1385L26.6895 14.8657L49.9861 36.5867L34.8139 52.8595Z" fill="white"/>
<path d="M34.8156 52.9341C32.875 51.2847 30.9033 49.5928 28.9194 47.8641C26.9354 46.1342 24.94 44.369 22.9449 42.5806C20.9548 40.7815 18.9531 38.9828 16.9852 37.1316C15.0123 35.287 13.0964 33.3757 11.1938 31.4859L10.8507 31.1455L11.1743 30.819L15.095 26.87C16.391 25.544 17.6714 24.2022 18.9393 22.8499C20.2018 21.4926 21.4583 20.1286 22.6987 18.7506L26.392 14.5897L26.6565 14.2931L26.9697 14.5657C30.9742 18.0554 34.922 21.6061 38.8376 25.1902C40.7959 26.9822 42.7721 28.7551 44.7074 30.5718C46.66 32.3698 48.5733 34.2101 50.5005 36.0356L51.0477 36.5541L50.5305 37.0936C47.9046 39.8352 45.2538 42.5546 42.6112 45.1914L38.6789 49.1182L34.8156 52.9341ZM34.8108 52.7852L42.1879 44.2546C44.6024 41.4676 47.0102 38.7625 49.4413 36.0791L49.4714 37.1371C47.5157 35.3423 45.5461 33.5624 43.6159 31.7402C41.6684 29.9366 39.7617 28.0892 37.8371 26.261C33.9875 22.6051 30.1696 18.9152 26.4089 15.165L26.9845 15.1411L23.092 19.1163C21.8041 20.4499 20.5313 21.7988 19.2655 23.1531C18.0052 24.5124 16.7562 25.8835 15.524 27.2691L11.8588 31.4562L11.8399 30.7898C13.8196 32.5198 15.7866 34.2287 17.6965 36.0043C19.6114 37.7734 21.4921 39.5945 23.3848 41.4156C25.2721 43.248 27.1595 45.1031 29.0584 46.9924L34.8108 52.7852Z" fill="url(#paint1_linear_1787_591)"/>
</g>
<defs>
<linearGradient id="paint0_linear_1787_591" x1="16.4421" y1="22.0584" x2="44.5891" y2="48.3018" gradientUnits="userSpaceOnUse">
<stop offset="1.58946e-07" stop-color="#FC8C5F"/>
<stop offset="1" stop-color="#FA7846"/>
</linearGradient>
<linearGradient id="paint1_linear_1787_591" x1="18.6121" y1="22.4438" x2="42.9908" y2="45.1737" gradientUnits="userSpaceOnUse">
<stop offset="1.58946e-07" stop-color="#FC8C5F"/>
<stop offset="1" stop-color="#FA7846"/>
</linearGradient>
<clipPath id="clip0_1787_591">
<rect width="47.3393" height="43.8585" fill="white" transform="translate(29.9087) rotate(42.9955)"/>
</clipPath>
</defs>
</svg>
