<svg width="48" height="60" viewBox="0 0 48 60" fill="none" xmlns="http://www.w3.org/2000/svg">
<path d="M25.6438 46.3823C26.8737 45.2172 28.1057 44.0549 29.3697 42.9258C29.9872 42.3529 30.6677 41.8103 31.2381 41.2317C31.8222 40.6315 32.3636 39.966 32.9325 39.3406L32.9028 39.3737C33.3319 38.7743 33.9356 38.287 34.6349 37.9901L34.6531 37.9822L34.711 37.9685C35.5938 37.7572 36.5642 37.947 37.3274 38.5033C37.7216 38.808 38.0115 39.189 38.2058 39.6339C38.392 40.0774 38.4638 40.5704 38.4109 41.0527L38.4087 41.0714L38.4 41.1145C38.2188 41.9907 37.7108 42.8007 36.9889 43.3549L37.0585 43.2959L34.253 46.079C33.3297 47.009 32.3259 47.8981 31.4396 48.8347C30.5286 49.8258 29.5509 50.7552 28.5261 51.6277C28.0507 52.0604 27.3919 52.5369 26.7476 52.8302C26.0924 53.1414 25.3974 53.3556 24.7016 53.4735C23.305 53.715 21.936 53.6589 20.6119 53.6151L16.6374 53.4821L12.6564 53.311L10.6663 53.2219C10.0147 53.2234 9.2936 52.984 8.77686 53.4778C8.995 53.2284 9.32186 53.0652 9.67046 53.0444L10.6655 52.9862L12.6557 52.897L16.6367 52.726C17.9659 52.6886 19.2849 52.6282 20.6235 52.6103C21.9476 52.5952 23.2536 52.5779 24.4668 52.3069C25.0712 52.1689 25.6525 51.9821 26.1852 51.7061C26.7382 51.4236 27.1549 51.1117 27.6492 50.6466C28.6116 49.7748 29.5262 48.8533 30.401 47.8974C32.2549 45.9675 34.1776 44.1642 36.0946 42.3249L36.1359 42.2854L36.1642 42.266C36.6476 41.9289 37.0092 41.4135 37.1571 40.8342L37.1462 40.8953C37.1897 40.6243 37.1628 40.3411 37.0672 40.0788C36.9809 39.8179 36.8099 39.5635 36.6142 39.3852C36.399 39.2026 36.1141 39.0481 35.8213 38.9676C35.5249 38.8828 35.2089 38.8677 34.898 38.9072L34.9741 38.8857C34.4153 39.0582 33.8979 39.3895 33.5007 39.8402L33.4725 39.8725L33.471 39.874C32.8412 40.4432 32.1846 40.9729 31.5816 41.5774C30.9272 42.1682 30.2488 42.644 29.5936 43.1874L25.6438 46.3823Z" fill="#1E2533"/>
<path d="M17.3301 45.9582C17.9708 45.6584 18.6114 45.5097 19.2521 45.3947C19.8928 45.289 20.5334 45.2401 21.1741 45.2394C21.8148 45.238 22.4555 45.2876 23.0961 45.3925C23.7368 45.5061 24.3775 45.6563 25.0182 45.9574C24.3775 46.2586 23.7368 46.4088 23.0961 46.5224C22.4555 46.628 21.8148 46.6769 21.1741 46.6755C20.5334 46.6748 19.8928 46.6259 19.2521 46.5202C18.6114 46.4067 17.9708 46.2572 17.3301 45.9582Z" fill="#1E2533"/>
<path d="M6.25244 44.1535C7.26273 42.8835 8.74846 41.9498 10.3943 41.5351C11.2133 41.3209 12.0997 41.2699 12.8867 41.2505L15.3132 41.1563C18.5477 41.0657 21.783 41.0291 25.0175 41.0729L25.0718 41.0736L25.1124 41.0794C25.8749 41.1858 26.5894 41.6314 26.9881 42.279C27.4091 42.9201 27.4968 43.7323 27.3142 44.4187C27.1323 45.0958 26.796 45.7031 26.1879 46.1617C25.8872 46.3838 25.477 46.5563 25.045 46.5441L24.1877 46.5096C21.9018 46.3931 19.616 46.2573 17.3301 46.0065C19.616 45.7556 21.9018 45.6198 24.1877 45.5033L25.045 45.4688C25.1885 45.4545 25.3291 45.3869 25.4748 45.2604C25.7632 45.0067 25.9944 44.556 26.0785 44.1384C26.2778 43.3003 25.6726 42.5485 24.9218 42.4587L25.016 42.4652C21.7815 42.5083 18.5463 42.4723 15.3117 42.3818L12.8853 42.2876C12.0569 42.2553 11.3155 42.1913 10.5451 42.307C9.01589 42.5018 7.52219 43.1451 6.25244 44.1535Z" fill="#1E2533"/>
<path d="M0.0688477 42.6987C1.45601 42.1338 2.86346 41.6486 4.27815 41.1937L4.68908 41.0614L4.84128 41.53C5.23481 42.744 5.61313 43.9623 5.95593 45.1885C6.32048 46.4096 6.61907 47.6473 6.94883 48.8771C7.238 50.117 7.55906 51.3489 7.81272 52.5974C8.08813 53.8408 8.32947 55.0922 8.55414 56.3478L8.64111 56.8352L8.21278 56.9078C6.74953 57.1572 5.27902 57.3771 3.78823 57.5158C5.17249 56.9494 6.57704 56.465 7.98884 56.0093L7.64821 56.5699C7.25467 55.356 6.87708 54.1377 6.53355 52.9115C6.16901 51.6903 5.87186 50.4526 5.54211 49.2228C5.25366 47.983 4.93332 46.7503 4.67966 45.5019C4.40426 44.2584 4.16364 43.0071 3.93825 41.7514L4.50065 42.0878C3.03522 42.3386 1.56254 42.5586 0.0688477 42.6987Z" fill="url(#paint0_linear_1777_510)"/>
<path d="M3.78896 57.525C3.18452 56.3635 2.71851 55.1675 2.30033 53.9593C1.88216 52.7511 1.51399 51.5306 1.19945 50.2958C0.878388 49.0632 0.621105 47.8147 0.405856 46.5554C0.191332 45.2962 0.0268155 44.024 0 42.7173V42.7022L0.00942166 42.7015L0.0688506 42.6986L0.0166691 42.7266L0.0260907 42.7108C0.629077 43.8731 1.09436 45.0691 1.50891 46.278C1.92274 47.4877 2.29454 48.7074 2.60328 49.9429C2.91781 51.177 3.17872 52.4248 3.39035 53.6847C3.60125 54.9454 3.76431 56.2176 3.78896 57.525Z" fill="url(#paint1_linear_1777_510)"/>
<path opacity="0.2" d="M1.42773 43.3422L5.25504 43.1405L8.42773 56.764L3.66907 57.5207" fill="url(#paint2_linear_1777_510)"/>
<path d="M26.6053 12.0142C31.261 11.8486 35.9143 11.8197 40.568 11.7204L40.9906 11.7118L40.991 12.2433L40.995 23.3233L40.9359 34.4023L40.9311 35.2907L40.1682 35.2898C34.6945 35.2832 29.2218 35.2124 23.7491 35.1436L15.541 34.9924L7.33346 34.8005L6.54521 34.7818L6.56862 33.8549C6.66282 30.1634 6.76044 26.471 6.88962 22.78C7.00003 19.0888 7.1497 15.3972 7.29168 11.7065L7.31182 11.1733L7.73389 11.1953C12.3826 11.4418 17.0323 11.6219 21.679 11.9357C17.025 12.1023 12.3717 12.1343 7.71716 12.2315L8.15937 11.7204C8.17609 15.4136 8.19962 19.1079 8.18562 22.8007C8.18954 26.4937 8.16102 30.1872 8.13081 33.8797L7.36595 32.9351L15.5755 33.0047L23.7844 33.115C29.2565 33.2206 34.7286 33.323 40.1995 33.4918L39.4318 34.3793L39.7485 23.3044L40.1284 12.2306L40.5513 12.7535C35.9027 12.506 31.2529 12.3279 26.6053 12.0142Z" fill="#1E2533"/>
<defs>
<linearGradient id="paint0_linear_1777_510" x1="-0.104583" y1="49.2896" x2="8.97985" y2="49.2896" gradientUnits="userSpaceOnUse">
<stop offset="1.58946e-07" stop-color="#FC8C5F"/>
<stop offset="1" stop-color="#FA7846"/>
</linearGradient>
<linearGradient id="paint1_linear_1777_510" x1="-0.862154" y1="50.1116" x2="4.49152" y2="50.1116" gradientUnits="userSpaceOnUse">
<stop offset="1.58946e-07" stop-color="#FC8C5F"/>
<stop offset="1" stop-color="#FA7846"/>
</linearGradient>
<linearGradient id="paint2_linear_1777_510" x1="1.42751" y1="50.3304" x2="8.42773" y2="50.3304" gradientUnits="userSpaceOnUse">
<stop offset="1.58946e-07" stop-color="#FC8C5F"/>
<stop offset="1" stop-color="#FA7846"/>
</linearGradient>
</defs>
</svg>
