<svg width="48" height="35" viewBox="0 0 48 35" fill="none" xmlns="http://www.w3.org/2000/svg">
<path opacity="0.2" d="M32.2524 17.905C36.5572 17.905 40.0478 14.4158 40.0478 10.1096C40.0478 5.80338 36.5587 2.31421 32.2524 2.31421C27.9462 2.31421 24.457 5.80338 24.457 10.1096C24.457 14.4158 27.9462 17.905 32.2524 17.905Z" fill="url(#paint0_linear_1772_307)"/>
<path d="M30.7985 16.3057C32.844 16.3595 34.6932 15.0612 35.6557 13.5129C36.6428 11.9544 37.1749 10.3799 37.3828 8.65568C37.5849 6.96634 37.3058 4.92808 35.9784 3.47571C34.6874 2.03061 32.6317 1.36331 30.7985 1.65698C28.9579 1.94484 27.3878 2.87383 26.2582 4.11539C25.1358 5.39476 24.6008 7.02449 24.5557 8.65568C24.5267 10.2985 25.0093 11.9253 25.9689 13.4838C26.9109 15.0452 28.7573 16.3275 30.7985 16.3057ZM30.7985 16.5965C28.75 16.5892 26.5417 16.1923 24.6037 14.8519C23.6616 14.1773 22.8344 13.2643 22.2965 12.1798C21.76 11.0967 21.478 9.87689 21.4518 8.65714C21.3937 6.19872 22.5378 3.7752 24.3159 2.17309C26.0663 0.514275 28.5523 -0.235896 30.7999 0.0650455C33.0548 0.344179 35.0538 1.35604 36.6428 2.81277C38.2159 4.24042 39.6159 6.25833 39.8049 8.65568C40.0273 11.0196 38.8817 13.4998 36.967 14.8228C35.0451 16.1763 32.8411 16.5572 30.7985 16.5965Z" fill="url(#paint1_linear_1772_307)"/>
<path d="M47.3781 34.7794C47.1339 32.6408 46.7617 30.6098 45.8167 28.8275C44.9415 27.0291 43.588 25.5389 42.0716 24.37C40.4942 23.2753 38.7351 22.4554 36.8655 22.1879C35.8958 22.0585 35.0831 21.9974 33.9709 22.0294L30.806 22.0628L27.641 22.0308L26.8501 22.0221L26.1465 22.0512C25.674 22.0425 25.216 22.153 24.7464 22.1922C22.8754 22.4554 21.1206 23.2811 19.5418 24.3729C18.0269 25.5418 16.6734 27.0305 15.7982 28.8289C14.8517 30.6113 14.4795 32.6408 14.2339 34.7809C13.837 32.7121 13.8064 30.447 14.4723 28.3012C15.1221 26.1568 16.4088 24.1869 18.0967 22.624C19.8005 21.0757 21.9493 19.9897 24.2347 19.4866C24.809 19.382 25.3876 19.2642 25.9735 19.2497L26.8501 19.1988L27.641 19.1901L30.806 19.1581L33.9709 19.1915L34.7633 19.2002L35.6399 19.2511C36.2258 19.2628 36.803 19.3878 37.3772 19.491C39.6612 19.9926 41.81 21.08 43.5124 22.6284C45.2003 24.1898 46.4854 26.1597 47.1353 28.3026C47.8041 30.447 47.7735 32.7106 47.3781 34.7794Z" fill="url(#paint2_linear_1772_307)"/>
<path d="M11.656 16.3116C13.2988 16.3639 14.7497 15.2314 15.4287 13.968C16.1309 12.693 16.4972 11.5169 16.7066 10.1954C16.9072 8.90726 16.7938 7.26881 15.7514 6.09993C14.7439 4.93978 13.0866 4.43822 11.656 4.73043C10.2167 5.01974 9.04639 5.783 8.20027 6.73962C7.36287 7.73548 6.99359 8.96687 6.94707 10.1954C6.91945 11.4355 7.23784 12.6625 7.91096 13.9389C8.56954 15.214 10.0175 16.3305 11.656 16.3116ZM11.656 16.6023C10.0103 16.5936 8.20172 16.3625 6.54582 15.307C5.74476 14.7749 5.03239 14.0305 4.57153 13.1321C4.11212 12.2336 3.86933 11.2145 3.84316 10.1968C3.78646 8.1411 4.76489 6.11593 6.25796 4.79876C7.72487 3.4249 9.81256 2.84046 11.656 3.1414C13.5096 3.42199 15.1088 4.26957 16.4144 5.4399C17.7025 6.58406 18.9382 8.20216 19.1272 10.1983C19.3482 12.1609 18.3669 14.2413 16.7386 15.2808C15.1016 16.3465 13.2959 16.5602 11.656 16.6023Z" fill="#1E2533"/>
<path d="M13.2046 20.609C12.4282 20.9288 11.6519 21.1207 10.877 21.3185C10.1225 21.4871 9.45951 21.7125 8.79947 21.948C7.49685 22.451 6.33088 23.1183 5.27832 23.9339C4.21993 24.7466 3.29966 25.7323 2.50297 26.875C1.69173 28.0177 1.04333 29.3203 0.422545 30.8657C-0.772497 27.7167 0.666788 23.7711 3.4872 21.6427C4.88433 20.5552 6.59548 19.8705 8.32698 19.7178C8.76167 19.6975 9.19491 19.6844 9.62379 19.7134C10.0483 19.7745 10.4888 19.8123 10.8755 19.8981C11.6533 20.0973 12.4297 20.2892 13.2046 20.609Z" fill="url(#paint3_linear_1772_307)"/>
<defs>
<linearGradient id="paint0_linear_1772_307" x1="24.457" y1="10.1106" x2="40.0464" y2="10.1106" gradientUnits="userSpaceOnUse">
<stop offset="1.58946e-07" stop-color="#FC8C5F"/>
<stop offset="1" stop-color="#FA7846"/>
</linearGradient>
<linearGradient id="paint1_linear_1772_307" x1="21.5492" y1="8.29877" x2="40.0462" y2="8.29877" gradientUnits="userSpaceOnUse">
<stop offset="1.58946e-07" stop-color="#FC8C5F"/>
<stop offset="1" stop-color="#FA7846"/>
</linearGradient>
<linearGradient id="paint2_linear_1772_307" x1="12.779" y1="26.968" x2="48.8325" y2="26.968" gradientUnits="userSpaceOnUse">
<stop offset="1.58946e-07" stop-color="#1E2533"/>
<stop offset="1" stop-color="#1E2533"/>
</linearGradient>
<linearGradient id="paint3_linear_1772_307" x1="-1.03128" y1="25.2823" x2="13.2051" y2="25.2823" gradientUnits="userSpaceOnUse">
<stop offset="1.58946e-07" stop-color="#FC8C5F"/>
<stop offset="1" stop-color="#FA7846"/>
</linearGradient>
</defs>
</svg>
