<svg width="16" height="17" viewBox="0 0 16 17" fill="none" xmlns="http://www.w3.org/2000/svg">
<rect y="0.854492" width="16" height="16" rx="8" fill="#FC8C5F"/>
<path d="M11.9284 8.31864V9.39007C11.9284 9.53888 11.8763 9.66537 11.7722 9.76953C11.668 9.8737 11.5415 9.92578 11.3927 9.92578H9.07129V12.2472C9.07129 12.396 9.01921 12.5225 8.91504 12.6267C8.81087 12.7308 8.68438 12.7829 8.53557 12.7829H7.46415C7.31534 12.7829 7.18885 12.7308 7.08468 12.6267C6.98052 12.5225 6.92843 12.396 6.92843 12.2472V9.92578H4.607C4.45819 9.92578 4.33171 9.8737 4.22754 9.76953C4.12337 9.66537 4.07129 9.53888 4.07129 9.39007V8.31864C4.07129 8.16983 4.12337 8.04334 4.22754 7.93917C4.33171 7.83501 4.45819 7.78292 4.607 7.78292H6.92843V5.4615C6.92843 5.31269 6.98052 5.1862 7.08468 5.08203C7.18885 4.97786 7.31534 4.92578 7.46415 4.92578H8.53557C8.68438 4.92578 8.81087 4.97786 8.91504 5.08203C9.01921 5.1862 9.07129 5.31269 9.07129 5.4615V7.78292H11.3927C11.5415 7.78292 11.668 7.83501 11.7722 7.93917C11.8763 8.04334 11.9284 8.16983 11.9284 8.31864Z" fill="white"/>
</svg>
