<svg width="53" height="39" viewBox="0 0 53 39" fill="none" xmlns="http://www.w3.org/2000/svg">
<path d="M46.5212 18.6966C46.5332 21.2619 46.5701 23.8272 46.6571 26.3925C46.737 28.9577 46.8455 31.523 47.0171 34.0883C47.1173 35.6892 47.2484 37.2902 47.3998 38.8911H48.0006C48.152 37.2902 48.2819 35.6892 48.3832 34.0883C48.5549 31.523 48.6634 28.9577 48.7432 26.3925C48.8302 23.8272 48.8672 21.2619 48.8791 18.6966C48.9089 16.1313 48.8565 13.566 48.8302 11.0007L48.8183 9.8468L47.7002 9.87183C44.5854 9.94097 41.4705 10.0447 38.3557 10.2187C35.2409 10.4011 32.1261 10.6252 29.0112 11.0007C32.1261 11.3762 35.2409 11.6003 38.3557 11.7827C41.0903 11.9365 43.8236 12.0283 46.5582 12.0974C46.5296 14.2967 46.495 16.4961 46.5212 18.6966Z" fill="#1E2533"/>
<path d="M13.0693 10.2152L8.39768 9.99582L3.72604 9.86827L2.60313 9.83728L2.5924 11.0007C2.57214 13.566 2.51134 16.1313 2.54829 18.6966C2.55783 21.2619 2.59955 23.8272 2.68538 26.3925C2.76644 28.9578 2.87492 31.523 3.04657 34.0883C3.1479 35.6893 3.27664 37.2902 3.42683 38.8911H4.02405C4.17425 37.2902 4.30418 35.6893 4.40432 34.0883C4.57478 31.523 4.68326 28.9578 4.76551 26.3925C4.85133 23.8272 4.89306 21.2619 4.90259 18.6966C4.93359 16.4985 4.89544 14.3003 4.8716 12.1022L8.39887 12.0056L13.0705 11.7863C16.1853 11.6027 19.3002 11.3798 22.415 11.0007C19.299 10.6216 16.1841 10.3987 13.0693 10.2152Z" fill="#1E2533"/>
<path d="M21.3746 25.7964C21.4509 28.3617 21.5808 30.927 21.7131 33.4923C21.8132 35.2911 21.9324 37.0899 22.0683 38.8887H22.4271C22.563 37.0899 22.6822 35.2911 22.7824 33.4923C22.9147 30.927 23.0434 28.3617 23.1209 25.7964C23.2902 21.0556 23.3748 16.316 23.4046 11.5753C24.8315 11.5848 26.2584 11.586 27.6865 11.5764C27.7163 16.316 27.7949 21.0568 27.9678 25.7964C28.0429 28.3617 28.1752 30.927 28.3063 33.4923C28.4077 35.2911 28.5269 37.0899 28.6627 38.8887H29.0239C29.161 37.0899 29.2802 35.2911 29.3804 33.4923C29.5115 30.927 29.6438 28.3617 29.7189 25.7964C29.9061 20.6658 29.9907 15.5364 30.0133 10.4058L30.0181 9.24718L28.8416 9.23407C26.6434 9.20903 24.4441 9.21261 22.2459 9.23526L21.0718 9.24718L21.0765 10.4047C21.098 15.5364 21.191 20.667 21.3746 25.7964Z" fill="url(#paint0_linear_1787_720)"/>
<path d="M51.9067 38.8158L26.6149 38.9318C18.0866 38.9652 9.48419 38.9882 0.879958 38.999L0.0397925 38.9999L0.036175 38.8156L0.0036175 37.1864L0 36.9969L0.879958 36.9963C9.38471 36.9901 17.8886 36.9873 26.3933 37.004C30.6457 37.0128 34.8981 37.0246 39.1495 37.044C43.4019 37.0623 47.6543 37.0855 51.9058 37.1208L52.2205 37.1233L52.2087 37.1864L51.9067 38.8158ZM51.9067 38.8158L51.6037 37.1866L51.9067 37.2523C47.6543 37.2876 43.4019 37.3108 39.1504 37.3291C34.8981 37.3485 30.6457 37.3603 26.3942 37.3691C17.8895 37.386 9.38561 37.3832 0.880862 37.3768L1.7572 37.1866L1.72464 38.8158L0.880862 38.6327C9.28613 38.6437 17.6923 38.6666 26.1726 38.6998L51.9067 38.8158Z" fill="#1E2533"/>
<path d="M26.1668 7.82981C27.5531 5.75683 29.2768 3.89008 31.4881 2.49062C32.5931 1.79446 33.8614 1.23181 35.3467 1.09711C36.0799 1.01486 36.8761 1.11976 37.6212 1.3844C37.9943 1.51791 38.3459 1.70387 38.6737 1.91724C38.8442 2.03049 39.0135 2.15327 39.1983 2.32731C39.2924 2.4191 39.3866 2.50969 39.5118 2.6885C39.5726 2.80174 39.65 2.84346 39.7478 3.23922C39.7585 3.30598 39.7657 3.32863 39.7704 3.43234C39.7752 3.52651 39.7633 3.6469 39.749 3.71724L39.7287 3.78638L39.6834 3.92584C39.6214 4.10108 39.5261 4.31445 39.4414 4.43485L39.1947 4.73763C39.0135 4.96174 38.8788 5.03326 38.7155 5.18346C38.4055 5.42663 38.1087 5.62452 37.8131 5.79021C37.2159 6.13352 36.6342 6.39696 36.0393 6.64372C34.8473 7.10623 33.6695 7.52583 32.456 7.82861C30.0493 8.4759 27.596 8.88834 25.0999 8.99563H25.0605L25.0951 8.98133H25.0963C27.3541 7.91563 29.6249 7.01564 31.8481 6.06557C32.9483 5.5673 34.0665 5.12743 35.1071 4.58505C35.6245 4.32041 36.1538 4.06293 36.6032 3.76849C36.8392 3.6326 37.049 3.48002 37.2183 3.34412C37.2767 3.28333 37.4126 3.19512 37.409 3.16651C37.4221 3.14744 37.4376 3.13194 37.4567 3.11644C37.4567 3.11644 37.4054 3.17247 37.409 3.21181V3.68386C37.4912 4.00452 37.5258 3.97829 37.5449 4.02955C37.5842 4.082 37.5711 4.06055 37.5556 4.04624C37.5187 4.00929 37.4424 3.9473 37.3589 3.89008C37.1753 3.76492 36.9834 3.66598 36.7832 3.58253C36.3826 3.41446 35.938 3.33816 35.4516 3.34651C34.4777 3.3179 33.4097 3.69697 32.3583 4.1273C30.2519 5.06425 28.2409 6.45418 26.1668 7.82981Z" fill="url(#paint1_linear_1787_720)"/>
<path d="M8.07666 1.4154C8.18752 1.09354 8.51772 0.908777 8.78712 0.722817C9.07321 0.542817 9.37838 0.385467 9.70262 0.276991C10.3463 0.0314286 11.0484 -0.0245982 11.7458 0.00877923C13.1417 0.0910307 14.5173 0.530898 15.7988 1.11262C17.0826 1.7003 18.3068 2.42506 19.4107 3.28453C20.5324 4.12493 21.5456 5.08929 22.473 6.12638L25.0812 9.04452L21.3179 8.07538C18.8957 7.45194 16.5521 6.51499 14.3015 5.39088C13.1751 4.833 12.0617 4.25844 10.9698 3.65884C10.419 3.36917 9.88858 3.04016 9.36765 2.704C8.87772 2.34639 8.29361 2.00904 8.07666 1.4154ZM8.07666 1.4154C8.30553 2.00308 8.89202 2.3297 9.40818 2.63606C9.94579 2.93645 10.5239 3.15698 11.0985 3.37513C12.256 3.79473 13.4588 4.08797 14.6639 4.3395C15.8703 4.59221 17.0838 4.8032 18.2889 5.02731C19.487 5.27525 20.6933 5.48506 21.8782 5.77234L20.7231 7.72134C18.9064 5.83433 17.1756 3.85672 15.1396 2.19977C14.1227 1.37487 12.9867 0.675136 11.6993 0.359243C11.0568 0.244806 10.3809 0.186395 9.72884 0.361626C9.11255 0.54997 8.40686 0.82891 8.07666 1.4154Z" fill="url(#paint2_linear_1787_720)"/>
<defs>
<linearGradient id="paint0_linear_1787_720" x1="21.0553" y1="24.0535" x2="30.0354" y2="24.0535" gradientUnits="userSpaceOnUse">
<stop offset="1.58946e-07" stop-color="#FC8C5F"/>
<stop offset="1" stop-color="#FA7846"/>
</linearGradient>
<linearGradient id="paint1_linear_1787_720" x1="24.6477" y1="5.0329" x2="39.7731" y2="5.0329" gradientUnits="userSpaceOnUse">
<stop offset="1.58946e-07" stop-color="#FC8C5F"/>
<stop offset="1" stop-color="#FA7846"/>
</linearGradient>
<linearGradient id="paint2_linear_1787_720" x1="6.88401" y1="4.5214" x2="25.108" y2="4.5214" gradientUnits="userSpaceOnUse">
<stop offset="1.58946e-07" stop-color="#FC8C5F"/>
<stop offset="1" stop-color="#FA7846"/>
</linearGradient>
</defs>
</svg>
