<svg width="50" height="38" viewBox="0 0 50 38" fill="none" xmlns="http://www.w3.org/2000/svg">
<path d="M25.8179 24.7428C28.7271 21.7992 31.8082 19.0085 34.9417 16.2643C36.4997 14.8842 38.0967 13.5393 39.695 12.1955C41.2772 10.837 42.9279 9.53967 44.5423 8.21061L45.4207 7.48773L46.3595 8.20155C47.0942 8.76014 47.8222 9.32439 48.5381 9.89998L49.4514 10.6353L48.6697 11.4296C47.2285 12.8935 45.829 14.3868 44.3529 15.8269C42.8916 17.2783 41.4343 18.7309 39.9287 20.1517C36.9389 23.007 33.8887 25.8215 30.6437 28.5034C33.0613 25.2584 35.675 22.147 38.3478 19.0765C39.6735 17.5344 41.0475 16.0241 42.4188 14.5115C43.774 12.9886 45.2071 11.5191 46.5973 10.0201L46.7302 11.5486C45.9942 10.9911 45.2703 10.4223 44.553 9.84786L46.3703 9.83879C44.7115 11.1293 43.089 12.4516 41.3981 13.7127C39.7232 14.9885 38.047 16.2631 36.3318 17.5038C32.9216 19.9976 29.455 22.4473 25.8179 24.7428Z" fill="url(#paint0_linear_1787_770)"/>
<path d="M27.4893 30.8137C27.8022 31.4369 27.7243 32.1801 27.5189 32.8441C27.2919 33.5115 26.948 34.1596 26.482 34.7453C25.5498 35.9146 24.2215 36.8993 22.5762 37.4794C20.9416 38.0187 19.0572 38.1864 17.3085 37.7558C15.6349 37.3899 14.0702 36.6772 12.7633 35.7243L10.7446 34.2525L13.3248 33.7789C14.4516 33.5715 15.5033 33.1625 16.2447 32.5144C16.6114 32.1858 16.9082 31.8017 17.1513 31.3689C17.381 30.9281 17.5072 30.4341 17.6053 29.9186V29.9718C17.6335 29.3679 17.882 28.7889 18.297 28.3323C18.6932 27.8655 19.3285 27.5494 19.906 27.4078C21.0853 27.1154 22.2202 27.2593 23.2531 27.5177C22.184 27.6094 21.1229 27.8225 20.3332 28.2292C19.5649 28.6292 19.2613 29.3169 19.3997 29.9107V29.965C19.4239 30.6097 19.3648 31.2737 19.1606 31.9399C18.9524 32.605 18.575 33.2543 18.0472 33.8095C16.9969 34.9448 15.4684 35.645 13.9251 35.9622L14.4852 34.0168C15.5275 34.7431 16.7363 35.2903 18.0284 35.6314C19.2291 35.9736 20.5763 35.9996 21.8469 35.6994C23.1174 35.4286 24.3477 34.7975 25.39 33.9828C25.9058 33.567 26.3853 33.1024 26.7667 32.5767C27.1468 32.0544 27.4786 31.4776 27.4893 30.8137Z" fill="url(#paint1_linear_1787_770)"/>
<path d="M28.4791 30.4806C27.4449 30.1011 26.4993 29.6388 25.5941 29.1402C24.674 28.6542 23.8077 28.1194 22.9656 27.5619L23.5149 27.8078L23.4814 27.8044L23.2718 27.7806L22.9401 27.5664L22.8273 27.4939L21.9233 26.9104L22.7494 26.0312C23.4142 25.323 24.1126 24.6421 24.8325 23.9758L25.7418 23.1328L26.7304 23.9124C28.33 25.1735 29.8491 26.5082 31.1868 28.0095L31.7268 28.6156L31.2312 28.9601C30.2507 29.6422 29.2071 30.143 28.4791 30.4806ZM28.4791 30.4806C29.1963 29.4994 29.6006 28.6825 30.064 28.0468L30.1083 28.9975C28.2212 27.997 26.5208 26.8254 24.9078 25.5745L26.8069 25.5111C26.0776 26.1694 25.3295 26.8118 24.5465 27.4282L24.4686 25.9654L24.5653 26.0527L24.024 25.8148L24.0562 25.8238L24.4632 25.936L24.6055 26.0697C26.04 27.4067 27.3912 28.8218 28.4791 30.4806Z" fill="url(#paint2_linear_1787_770)"/>
<path opacity="0.2" d="M18.4239 18.8886C22.7228 18.8886 26.2087 15.1897 26.2087 10.6247C26.2087 6.05962 22.7243 2.36072 18.4239 2.36072C14.125 2.36072 10.6392 6.05962 10.6392 10.6247C10.6392 15.1897 14.125 18.8886 18.4239 18.8886Z" fill="url(#paint3_linear_1787_770)"/>
<path d="M16.9722 17.2858C19.015 17.3428 20.8617 15.9665 21.8228 14.3251C22.8086 12.673 23.34 11.0038 23.5476 9.17596C23.7494 7.38507 23.4706 5.2243 22.1451 3.68463C20.8559 2.15267 18.803 1.44525 16.9722 1.75658C15.1342 2.06174 13.5662 3.04657 12.4381 4.36276C11.3173 5.71902 10.783 7.44672 10.738 9.17596C10.709 10.9175 11.191 12.6421 12.1492 14.2943C13.0914 15.948 14.9353 17.3074 16.9722 17.2858ZM16.9722 17.594C14.9266 17.5863 12.7212 17.1656 10.7859 15.7446C9.84514 15.0295 9.01904 14.0616 8.48186 12.9118C7.94613 11.7636 7.66448 10.4706 7.63835 9.1775C7.58027 6.57131 8.72287 4.00212 10.4985 2.30371C12.2465 0.545187 14.7291 -0.250075 16.9737 0.0689552C19.2255 0.364867 21.2217 1.43755 22.8086 2.98184C24.3795 4.4953 25.7776 6.6345 25.9664 9.17596C26.1885 11.682 25.0444 14.3113 23.1324 15.7138C21.2145 17.1486 19.0135 17.5509 16.9722 17.594Z" fill="url(#paint4_linear_1787_770)"/>
<path d="M26.2113 23.0761C24.7667 22.7432 23.3599 22.5675 21.9806 22.6492C20.658 22.7278 19.1277 22.9636 17.7078 23.0453C16.2633 23.1871 14.8172 23.2194 13.3727 23.3027C12.0079 23.3705 10.7869 23.5524 9.55577 23.9839C7.12539 24.8238 4.95344 26.4837 3.35642 28.7108C2.56953 29.8297 1.88571 31.0796 1.44 32.4575C0.940563 33.8183 0.743114 35.3195 0.430968 36.8699C0.0999492 35.358 -0.0975015 33.7675 0.0491341 32.1261C0.203029 30.5001 0.680685 28.8849 1.4458 27.4192C2.95426 24.4832 5.56612 22.0959 8.65273 21.0556C10.1728 20.527 11.8482 20.3297 13.3727 20.3929C14.8187 20.4761 16.2633 20.5085 17.7093 20.6503C19.1786 20.7766 20.5447 20.8645 22.1055 21.1511C23.6038 21.4995 25.0309 22.1236 26.2113 23.0761Z" fill="url(#paint5_linear_1787_770)"/>
<defs>
<linearGradient id="paint0_linear_1787_770" x1="24.8939" y1="17.9953" x2="49.4705" y2="17.9953" gradientUnits="userSpaceOnUse">
<stop offset="1.58946e-07" stop-color="#FC8C5F"/>
<stop offset="1" stop-color="#FA7846"/>
</linearGradient>
<linearGradient id="paint1_linear_1787_770" x1="10.7194" y1="32.6227" x2="28.8882" y2="32.6227" gradientUnits="userSpaceOnUse">
<stop offset="1.58946e-07" stop-color="#FC8C5F"/>
<stop offset="1" stop-color="#FA7846"/>
</linearGradient>
<linearGradient id="paint2_linear_1787_770" x1="21.7411" y1="26.8066" x2="32.5482" y2="26.8066" gradientUnits="userSpaceOnUse">
<stop offset="1.58946e-07" stop-color="#FC8C5F"/>
<stop offset="1" stop-color="#FA7846"/>
</linearGradient>
<linearGradient id="paint3_linear_1787_770" x1="10.6403" y1="10.6248" x2="26.2085" y2="10.6248" gradientUnits="userSpaceOnUse">
<stop offset="1.58946e-07" stop-color="#FC8C5F"/>
<stop offset="1" stop-color="#FA7846"/>
</linearGradient>
<linearGradient id="paint4_linear_1787_770" x1="7.73678" y1="8.79666" x2="26.2087" y2="8.79666" gradientUnits="userSpaceOnUse">
<stop offset="1.58946e-07" stop-color="#FC8C5F"/>
<stop offset="1" stop-color="#FA7846"/>
</linearGradient>
<linearGradient id="paint5_linear_1787_770" x1="-1.02203" y1="28.6251" x2="26.8202" y2="28.6251" gradientUnits="userSpaceOnUse">
<stop offset="1.58946e-07" stop-color="#FC8C5F"/>
<stop offset="1" stop-color="#FA7846"/>
</linearGradient>
</defs>
</svg>
