<svg width="56" height="52" fill="none" xmlns="http://www.w3.org/2000/svg"><path opacity=".2" d="M51.667 46.927H6.143v-33.82h45.524v33.82z" fill="url(#paint0_linear_1776_422)"/><path d="M19.457 10.396c.466-.996 1.068-1.862 1.698-2.701.643-.827 1.3-1.64 2.09-2.326.79-.686 1.705-1.252 2.453-1.98.75-.724 1.395-1.548 1.984-2.427l.238-.355.46.355a26.488 26.488 0 012.38 2.047c.755.72 1.516 1.433 2.205 2.216a32.49 32.49 0 011.949 2.462c.609.86 1.198 1.738 1.69 2.71l-.127.121c-.926-.555-1.756-1.204-2.565-1.871a32.223 32.223 0 01-2.306-2.12c-.73-.744-1.387-1.557-2.05-2.365a26.662 26.662 0 01-1.874-2.533h.696c-.829.649-1.602 1.351-2.27 2.154-.671.8-1.174 1.76-1.803 2.6-.628.842-1.389 1.556-2.164 2.256-.788.687-1.605 1.349-2.557 1.88l-.127-.123z" fill="#1E2533"/><path d="M51.73 46.99c-3.818.13-7.68.266-11.605.35-3.914.095-7.848.205-11.821.258-3.968.06-7.954.107-11.946.11-3.99.016-7.992-.07-11.965-.17l-.614-.015.013-.595c.136-6.08.332-12.162.332-18.243.011-3.04-.035-6.08-.05-9.122l-.16-9.123-.008-.475.487-.011c7.879-.2 15.758-.322 23.637-.374l11.818-.086c3.94-.016 7.88.002 11.82.039l.895.008-.002.9c-.01 3.094-.08 6.186-.13 9.269l-.181 9.218-.52 18.061zm-.124-.126l-.522-18.426-.18-9.024c-.05-2.998-.12-5.988-.13-8.974l.893.908c-3.94.035-7.879.054-11.819.039L28.031 11.3c-7.88-.052-15.758-.175-23.637-.374l.479-.486-.161 9.121c-.014 3.04-.06 6.08-.05 9.122 0 6.08.197 12.162.332 18.243l-.6-.61c3.905-.1 7.783-.187 11.67-.17 3.888.002 7.78.049 11.692.11 3.906.053 7.85.162 11.816.258 3.956.082 7.971.22 12.034.35z" fill="#1E2533"/><path d="M46.886 41.873H9.206V15.494h37.68v26.379z" fill="#fff"/><path d="M46.947 41.936a682.519 682.519 0 01-18.622.62c-3.174.048-6.357.107-9.552.093-3.196-.005-6.395-.113-9.566-.214l-.571-.017.016-.545.207-6.594c.052-2.198.077-4.397.083-6.595a404.053 404.053 0 00-.054-6.594l-.161-6.595-.01-.47.49-.018a769.8 769.8 0 0118.84-.382c3.14-.03 6.28-.09 9.42-.079 3.14-.02 6.28.03 9.42.054l.891.007-.012.886c-.06 4.501-.16 9.002-.32 13.426l-.234 6.584-.265 6.433zm-.124-.125l-.499-13.363a582.417 582.417 0 01-.319-12.954l.88.893c-3.14.025-6.28.074-9.42.055-3.14.01-6.28-.05-9.42-.08-6.28-.057-12.56-.17-18.84-.382l.48-.486-.162 6.595a404.053 404.053 0 00-.054 6.594c.006 2.198.031 4.397.083 6.595l.207 6.594-.554-.563c3.108-.1 6.188-.208 9.273-.213 3.084-.014 6.18.045 9.287.094 3.111.063 6.241.145 9.408.248l9.65.373z" fill="url(#paint1_linear_1776_422)"/><defs><linearGradient id="paint0_linear_1776_422" x1="6.143" y1="30.017" x2="51.667" y2="30.017" gradientUnits="userSpaceOnUse"><stop offset="0" stop-color="#FC8C5F"/><stop offset="1" stop-color="#FA7846"/></linearGradient><linearGradient id="paint1_linear_1776_422" x1="8.331" y1="28.596" x2="47.761" y2="28.596" gradientUnits="userSpaceOnUse"><stop offset="0" stop-color="#FC8C5F"/><stop offset="1" stop-color="#FA7846"/></linearGradient></defs></svg>