<svg width="65" height="65" fill="none" xmlns="http://www.w3.org/2000/svg"><g clip-path="url(#clip0_1787_591)"><path opacity=".2" d="M34.863 58.734L6.716 32.49l19.453-20.864L54.315 37.87 34.863 58.734z" fill="url(#paint0_linear_1787_591)"/><path d="M34.866 58.808c-2.435-2.12-4.902-4.263-7.377-6.474-2.474-2.196-4.97-4.397-7.457-6.655-2.488-2.25-4.98-4.52-7.45-6.819-2.476-2.29-4.9-4.65-7.3-7.002l-.37-.363.35-.36c3.581-3.672 7.2-7.311 10.698-11.062 1.755-1.87 3.476-3.771 5.216-5.656l5.148-5.72.268-.298.308.274c4.986 4.42 9.928 8.885 14.83 13.395l7.356 6.76a752.398 752.398 0 017.285 6.838l.55.521-.52.553c-1.785 1.904-3.607 3.77-5.41 5.644l-5.415 5.583-10.71 10.841zm-.005-.148l10.276-11.668 5.079-5.671c1.694-1.878 3.37-3.763 5.08-5.61l.031 1.074a779.882 779.882 0 01-7.33-6.789l-7.257-6.865a1076.568 1076.568 0 01-14.4-13.857l.576-.024-5.346 5.534c-1.757 1.867-3.534 3.717-5.276 5.599-3.498 3.751-6.875 7.616-10.288 11.445l-.02-.723c2.471 2.19 4.919 4.372 7.313 6.624a660.018 660.018 0 017.166 6.807c2.384 2.285 4.76 4.626 7.157 6.97 2.398 2.332 4.802 4.732 7.24 7.154z" fill="#1E2533"/><path d="M34.814 52.86L11.517 31.138 26.69 14.866l23.297 21.72L34.814 52.86z" fill="#fff"/><path d="M34.816 52.934a631.898 631.898 0 01-5.897-5.07 581.403 581.403 0 01-5.974-5.283c-1.99-1.8-3.992-3.598-5.96-5.45-1.973-1.844-3.889-3.755-5.791-5.645l-.343-.34.323-.327 3.921-3.949a267.986 267.986 0 003.844-4.02 340.59 340.59 0 003.76-4.1l3.693-4.16.265-.297.313.273c4.004 3.49 7.952 7.04 11.868 10.624 1.958 1.792 3.934 3.565 5.87 5.382 1.952 1.798 3.865 3.638 5.793 5.464l.547.518-.517.54a501.84 501.84 0 01-7.92 8.097l-3.932 3.927-3.863 3.816zm-.005-.149l7.377-8.53a490.525 490.525 0 017.253-8.176l.03 1.058c-1.955-1.795-3.925-3.575-5.855-5.397-1.948-1.803-3.854-3.65-5.779-5.479A652.689 652.689 0 0126.41 15.165l.576-.024-3.893 3.975a340.583 340.583 0 00-3.826 4.037 269.97 269.97 0 00-3.742 4.116l-3.665 4.187-.02-.666c1.98 1.73 3.948 3.439 5.857 5.214 1.915 1.77 3.796 3.59 5.689 5.412a650.176 650.176 0 015.673 5.576l5.753 5.793z" fill="url(#paint1_linear_1787_591)"/></g><defs><linearGradient id="paint0_linear_1787_591" x1="16.442" y1="22.058" x2="44.589" y2="48.302" gradientUnits="userSpaceOnUse"><stop offset="0" stop-color="#FC8C5F"/><stop offset="1" stop-color="#FA7846"/></linearGradient><linearGradient id="paint1_linear_1787_591" x1="18.612" y1="22.444" x2="42.991" y2="45.174" gradientUnits="userSpaceOnUse"><stop offset="0" stop-color="#FC8C5F"/><stop offset="1" stop-color="#FA7846"/></linearGradient><clipPath id="clip0_1787_591"><path fill="#fff" transform="rotate(42.996 14.954 37.968)" d="M0 0h47.339v43.858H0z"/></clipPath></defs></svg>