<svg width="48" height="60" fill="none" xmlns="http://www.w3.org/2000/svg"><path d="M25.644 46.382a173.653 173.653 0 013.726-3.456c.617-.573 1.298-1.116 1.868-1.694.584-.6 1.126-1.266 1.694-1.891l-.03.033a4.12 4.12 0 011.733-1.384l.018-.008.058-.014a3.209 3.209 0 012.616.535c.395.305.684.686.879 1.13.186.444.258.937.205 1.42l-.002.018-.009.044a3.832 3.832 0 01-1.411 2.24l.07-.06-2.806 2.784c-.923.93-1.927 1.82-2.813 2.756a33.065 33.065 0 01-2.914 2.793c-.475.432-1.134.909-1.778 1.202a7.837 7.837 0 01-2.046.644c-1.397.241-2.766.185-4.09.141l-3.975-.133-3.98-.171-1.99-.09c-.652.002-1.373-.237-1.89.257a1.3 1.3 0 01.893-.434l.995-.058 1.99-.089 3.982-.171c1.329-.037 2.648-.098 3.986-.116 1.325-.015 2.63-.032 3.844-.303.604-.138 1.186-.325 1.718-.6.553-.283.97-.595 1.464-1.06a41.564 41.564 0 002.752-2.75c1.854-1.93 3.777-3.733 5.694-5.572l.04-.04.03-.019c.483-.337.844-.852.992-1.432l-.01.061a1.636 1.636 0 00-.08-.816 1.698 1.698 0 00-.453-.694 2.14 2.14 0 00-.793-.417 2.307 2.307 0 00-.923-.06l.076-.022a3.257 3.257 0 00-1.473.954l-.029.032-.001.002c-.63.57-1.286 1.099-1.89 1.703-.654.591-1.332 1.067-1.987 1.61l-3.95 3.195z" fill="#1E2533"/><path d="M17.33 45.958c.64-.3 1.281-.448 1.922-.563.64-.106 1.281-.155 1.922-.156.64-.001 1.282.049 1.922.154.64.113 1.282.263 1.922.564-.64.302-1.281.452-1.922.565a11.63 11.63 0 01-1.922.154c-.64-.001-1.281-.05-1.922-.156-.64-.113-1.281-.263-1.922-.562z" fill="#1E2533"/><path d="M6.252 44.154c1.01-1.27 2.496-2.204 4.142-2.619.82-.214 1.706-.265 2.493-.284l2.426-.095c3.235-.09 6.47-.127 9.704-.083h.055l.04.006c.763.107 1.477.552 1.876 1.2.421.641.509 1.453.326 2.14-.182.677-.518 1.284-1.126 1.743-.3.222-.711.394-1.143.382l-.857-.034c-2.286-.117-4.572-.253-6.858-.503 2.286-.251 4.572-.387 6.858-.504l.857-.034a.775.775 0 00.43-.209c.288-.253.52-.704.603-1.122.2-.838-.405-1.59-1.156-1.68l.094.007c-3.234.043-6.47.007-9.704-.083l-2.427-.094c-.828-.033-1.57-.097-2.34.019-1.53.195-3.023.838-4.293 1.846z" fill="#1E2533"/><path d="M.069 42.699a59.049 59.049 0 014.21-1.505l.41-.133.152.469a93.623 93.623 0 011.115 3.658c.364 1.222.663 2.46.993 3.69.289 1.239.61 2.47.864 3.72a93.44 93.44 0 01.741 3.75l.087.487-.428.073c-1.463.25-2.934.47-4.425.608 1.384-.567 2.789-1.051 4.2-1.507l-.34.56a94.82 94.82 0 01-1.114-3.658c-.365-1.22-.662-2.458-.992-3.688-.288-1.24-.609-2.473-.862-3.721a94.746 94.746 0 01-.742-3.75l.563.336c-1.466.25-2.938.47-4.432.61z" fill="url(#paint0_linear_1777_510)"/><path d="M3.789 57.525c-.604-1.161-1.07-2.358-1.489-3.566a45.648 45.648 0 01-1.1-3.663 44.71 44.71 0 01-.794-3.74C.19 45.295.026 44.023 0 42.716v-.015h.01l.059-.003-.052.028.01-.016c.602 1.162 1.067 2.358 1.482 3.567a45.993 45.993 0 011.881 7.407c.211 1.26.374 2.533.399 3.84z" fill="url(#paint1_linear_1777_510)"/><path opacity=".2" d="M1.428 43.342l3.827-.201 3.173 13.623-4.759.757" fill="url(#paint2_linear_1777_510)"/><path d="M26.605 12.014c4.656-.165 9.31-.194 13.963-.294l.423-.008v.531l.004 11.08-.06 11.08-.004.888-.763-.001c-5.474-.007-10.946-.078-16.419-.146l-8.208-.152-8.208-.191-.788-.02.024-.926c.094-3.692.191-7.384.32-11.075.111-3.691.26-7.383.403-11.074l.02-.533.422.022c4.649.247 9.298.427 13.945.74-4.654.167-9.307.2-13.962.296l.442-.51c.017 3.693.04 7.387.027 11.08.004 3.693-.025 7.386-.055 11.079l-.765-.945 8.21.07 8.208.11c5.473.106 10.945.208 16.416.377l-.768.887.316-11.075.38-11.073.423.523c-4.648-.248-9.298-.426-13.946-.74z" fill="#1E2533"/><defs><linearGradient id="paint0_linear_1777_510" x1="-.105" y1="49.29" x2="8.98" y2="49.29" gradientUnits="userSpaceOnUse"><stop offset="0" stop-color="#FC8C5F"/><stop offset="1" stop-color="#FA7846"/></linearGradient><linearGradient id="paint1_linear_1777_510" x1="-.862" y1="50.112" x2="4.492" y2="50.112" gradientUnits="userSpaceOnUse"><stop offset="0" stop-color="#FC8C5F"/><stop offset="1" stop-color="#FA7846"/></linearGradient><linearGradient id="paint2_linear_1777_510" x1="1.428" y1="50.33" x2="8.428" y2="50.33" gradientUnits="userSpaceOnUse"><stop offset="0" stop-color="#FC8C5F"/><stop offset="1" stop-color="#FA7846"/></linearGradient></defs></svg>