<svg width="48" height="35" fill="none" xmlns="http://www.w3.org/2000/svg"><path opacity=".2" d="M32.252 17.905a7.795 7.795 0 007.796-7.795 7.794 7.794 0 00-7.796-7.796 7.794 7.794 0 00-7.795 7.796 7.794 7.794 0 007.795 7.795z" fill="url(#paint0_linear_1772_307)"/><path d="M30.799 16.306c2.045.053 3.894-1.245 4.857-2.793a11.363 11.363 0 001.727-4.857c.202-1.69-.077-3.728-1.405-5.18-1.29-1.445-3.346-2.113-5.18-1.819a7.765 7.765 0 00-4.54 2.458c-1.122 1.28-1.657 2.91-1.702 4.54-.03 1.644.453 3.27 1.413 4.829.942 1.561 2.788 2.844 4.83 2.822zm0 .29c-2.049-.007-4.257-.404-6.195-1.744-.942-.675-1.77-1.588-2.307-2.672a8.382 8.382 0 01-.845-3.523c-.058-2.458 1.086-4.882 2.864-6.484C26.066.514 28.552-.236 30.8.065c2.255.28 4.254 1.291 5.843 2.748 1.573 1.427 2.973 3.445 3.162 5.843.222 2.364-.923 4.844-2.838 6.167-1.922 1.353-4.126 1.734-6.168 1.773z" fill="url(#paint1_linear_1772_307)"/><path d="M47.378 34.78c-.244-2.14-.616-4.17-1.561-5.953-.876-1.798-2.229-3.288-3.745-4.457-1.578-1.095-3.337-1.915-5.207-2.182-.97-.13-1.782-.19-2.894-.159l-3.165.034-3.165-.032-.79-.009-.704.03c-.473-.01-.931.101-1.4.14-1.872.263-3.626 1.09-5.205 2.18-1.515 1.17-2.869 2.659-3.744 4.457-.946 1.782-1.319 3.812-1.564 5.952-.397-2.069-.428-4.334.238-6.48.65-2.144 1.937-4.114 3.625-5.677 1.703-1.548 3.852-2.634 6.138-3.137.574-.105 1.153-.223 1.739-.237l.876-.051.791-.009 3.165-.032 3.165.034.792.008.877.051c.586.012 1.163.137 1.737.24 2.284.502 4.433 1.589 6.135 3.137 1.688 1.562 2.973 3.532 3.623 5.675.67 2.144.639 4.408.243 6.476z" fill="url(#paint2_linear_1772_307)"/><path d="M11.656 16.312c1.643.052 3.094-1.08 3.773-2.344.702-1.275 1.068-2.451 1.278-3.773.2-1.288.087-2.926-.956-4.095-1.007-1.16-2.664-1.662-4.095-1.37A6.245 6.245 0 008.2 6.74c-.837.995-1.206 2.227-1.253 3.455-.028 1.24.29 2.467.964 3.744.659 1.275 2.107 2.392 3.745 2.373zm0 .29c-1.646-.008-3.454-.24-5.11-1.295-.801-.532-1.514-1.277-1.974-2.175a6.871 6.871 0 01-.729-2.935c-.057-2.056.922-4.081 2.415-5.398C7.725 3.425 9.813 2.84 11.656 3.14c1.854.281 3.453 1.129 4.758 2.299 1.288 1.144 2.524 2.762 2.713 4.758.221 1.963-.76 4.043-2.388 5.083-1.637 1.065-3.443 1.28-5.083 1.321z" fill="#1E2533"/><path d="M13.205 20.609c-.777.32-1.553.512-2.328.71-.755.168-1.417.393-2.078.629a13.859 13.859 0 00-3.52 1.986 13.154 13.154 0 00-2.776 2.941c-.811 1.143-1.46 2.445-2.08 3.99-1.195-3.148.244-7.094 3.064-9.222 1.397-1.088 3.108-1.773 4.84-1.925.435-.02.868-.034 1.297-.005.424.061.865.1 1.252.185.777.2 1.554.391 2.329.711z" fill="url(#paint3_linear_1772_307)"/><defs><linearGradient id="paint0_linear_1772_307" x1="24.457" y1="10.111" x2="40.046" y2="10.111" gradientUnits="userSpaceOnUse"><stop offset="0" stop-color="#FC8C5F"/><stop offset="1" stop-color="#FA7846"/></linearGradient><linearGradient id="paint1_linear_1772_307" x1="21.549" y1="8.299" x2="40.046" y2="8.299" gradientUnits="userSpaceOnUse"><stop offset="0" stop-color="#FC8C5F"/><stop offset="1" stop-color="#FA7846"/></linearGradient><linearGradient id="paint2_linear_1772_307" x1="12.779" y1="26.968" x2="48.833" y2="26.968" gradientUnits="userSpaceOnUse"><stop offset="0" stop-color="#1E2533"/><stop offset="1" stop-color="#1E2533"/></linearGradient><linearGradient id="paint3_linear_1772_307" x1="-1.031" y1="25.282" x2="13.205" y2="25.282" gradientUnits="userSpaceOnUse"><stop offset="0" stop-color="#FC8C5F"/><stop offset="1" stop-color="#FA7846"/></linearGradient></defs></svg>