<svg width="17" height="16" fill="none" xmlns="http://www.w3.org/2000/svg"><g clip-path="url(#clip0_1775_387)"><path d="M8.842 4a1.026 1.026 0 110 2.051 1.026 1.026 0 010-2.051zM8.5 6.53c1.026 0 1.274.605 1.16 1.352l-.476 3.092s.342 0 1.025-.341c0 0-.342 1.367-1.71 1.367-1.025 0-1.273-.605-1.159-1.352l.476-3.092s-.342 0-1.025.341c0 0 .341-1.367 1.709-1.367z" fill="#FA7846"/></g><circle cx="8.5" cy="8" r="7.4" stroke="#FA7846" stroke-width="1.2"/><defs><clipPath id="clip0_1775_387"><path fill="#fff" transform="translate(6.79 4)" d="M0 0h3.419v8H0z"/></clipPath></defs></svg>