<svg width="16" height="17" fill="none" xmlns="http://www.w3.org/2000/svg"><rect y=".854" width="16" height="16" rx="8" fill="#FC8C5F"/><path d="M11.928 8.319V9.39a.517.517 0 01-.156.38.517.517 0 01-.38.156h-2.32v2.321a.517.517 0 01-.157.38.517.517 0 01-.38.156h-1.07a.517.517 0 01-.38-.156.517.517 0 01-.157-.38V9.926H4.607a.517.517 0 01-.38-.156.517.517 0 01-.156-.38V8.32c0-.15.052-.276.157-.38a.517.517 0 01.379-.156h2.321V5.46c0-.148.053-.275.157-.379a.517.517 0 01.38-.156h1.07c.15 0 .276.052.38.156.104.104.156.23.156.38v2.32h2.322c.148 0 .275.053.38.157a.52.52 0 01.155.38z" fill="#fff"/></svg>