<svg width="53" height="39" fill="none" xmlns="http://www.w3.org/2000/svg"><path d="M46.521 18.697c.012 2.565.05 5.13.136 7.695.08 2.566.189 5.131.36 7.696.1 1.601.231 3.202.383 4.803h.6c.152-1.6.282-3.202.383-4.803.172-2.565.28-5.13.36-7.696.087-2.565.124-5.13.136-7.695.03-2.566-.023-5.131-.049-7.696l-.012-1.154-1.118.025c-3.115.069-6.23.173-9.344.347-3.115.182-6.23.406-9.345.782 3.115.375 6.23.6 9.345.782 2.734.154 5.468.245 8.202.314-.028 2.2-.063 4.4-.037 6.6zM13.07 10.215l-4.672-.22-4.672-.127-1.123-.03L2.593 11c-.02 2.565-.082 5.13-.045 7.696.01 2.565.052 5.13.137 7.695.081 2.566.19 5.131.362 7.696.1 1.601.23 3.202.38 4.803h.597c.15-1.6.28-3.202.38-4.803.17-2.565.28-5.13.362-7.696.085-2.565.127-5.13.137-7.695.03-2.198-.008-4.397-.031-6.595l3.527-.096 4.671-.22c3.115-.183 6.23-.406 9.345-.785-3.116-.38-6.23-.602-9.346-.786z" fill="#1E2533"/><path d="M21.375 25.796c.076 2.566.206 5.131.338 7.696.1 1.8.22 3.598.355 5.397h.36c.135-1.8.254-3.598.354-5.397.133-2.565.261-5.13.339-7.696.17-4.74.254-9.48.284-14.22 1.426.009 2.853.01 4.281 0 .03 4.74.109 9.48.282 14.22.075 2.566.207 5.131.338 7.696.102 1.8.22 3.598.357 5.397h.36c.138-1.8.257-3.598.357-5.397.132-2.565.264-5.13.339-7.696.187-5.13.272-10.26.294-15.39l.005-1.159-1.176-.013a304.079 304.079 0 00-6.596.001l-1.174.012.005 1.158a484.61 484.61 0 00.298 15.391z" fill="url(#paint0_linear_1787_720)"/><path d="M51.907 38.816l-25.292.116c-8.528.033-17.13.056-25.735.067H.04l-.004-.183-.032-1.63-.004-.19h.88c8.505-.006 17.009-.009 25.513.008 4.253.009 8.505.02 12.757.04 4.252.018 8.504.042 12.756.077l.315.002-.012.063-.302 1.63zm0 0l-.303-1.63.303.066c-4.253.036-8.505.059-12.757.077-4.252.02-8.504.031-12.756.04-8.504.017-17.008.014-25.513.008l.876-.19-.032 1.629-.844-.183c8.405.01 16.811.034 25.292.067l25.734.116z" fill="#1E2533"/><path d="M26.167 7.83c1.386-2.073 3.11-3.94 5.321-5.34 1.105-.696 2.373-1.258 3.859-1.393.733-.082 1.53.023 2.274.287.373.134.725.32 1.053.533.17.113.34.236.524.41.094.092.189.183.314.361.06.114.138.155.236.551.01.067.018.09.022.193.005.095-.007.215-.021.285l-.02.07-.046.139a2.405 2.405 0 01-.242.509l-.246.303c-.181.224-.316.295-.48.445-.31.244-.606.442-.902.607a15.03 15.03 0 01-1.774.854c-1.192.462-2.37.882-3.583 1.185-2.407.647-4.86 1.06-7.356 1.167h-.04l.035-.015h.001c2.258-1.065 4.529-1.965 6.752-2.915 1.1-.499 2.218-.939 3.26-1.481.517-.265 1.046-.522 1.495-.817a4.78 4.78 0 00.615-.424c.059-.06.195-.149.191-.177a.235.235 0 01.048-.05s-.052.055-.048.095v.472c.082.32.117.294.136.346.04.052.026.03.01.016a1.573 1.573 0 00-.196-.156 3.191 3.191 0 00-.576-.307 3.263 3.263 0 00-1.331-.236c-.974-.03-2.042.35-3.094.78-2.106.937-4.117 2.327-6.191 3.703z" fill="url(#paint1_linear_1787_720)"/><path d="M8.077 1.415c.11-.321.44-.506.71-.692.286-.18.591-.338.916-.446.643-.246 1.345-.302 2.043-.268 1.396.082 2.771.522 4.053 1.104a18.244 18.244 0 013.612 2.172 21.105 21.105 0 013.062 2.841l2.608 2.919-3.763-.97c-2.422-.623-4.766-1.56-7.017-2.684a88.807 88.807 0 01-3.331-1.732 21.14 21.14 0 01-1.602-.955c-.49-.358-1.074-.695-1.291-1.289zm0 0c.229.588.815.915 1.331 1.221.538.3 1.116.521 1.69.74 1.158.419 2.36.712 3.566.964s2.42.463 3.625.687c1.198.248 2.404.458 3.59.745l-1.156 1.95C18.906 5.833 17.176 3.856 15.14 2.2 14.123 1.375 12.987.675 11.7.36c-.643-.115-1.32-.174-1.971.002-.616.188-1.322.467-1.652 1.053z" fill="url(#paint2_linear_1787_720)"/><defs><linearGradient id="paint0_linear_1787_720" x1="21.055" y1="24.053" x2="30.035" y2="24.053" gradientUnits="userSpaceOnUse"><stop offset="0" stop-color="#FC8C5F"/><stop offset="1" stop-color="#FA7846"/></linearGradient><linearGradient id="paint1_linear_1787_720" x1="24.648" y1="5.033" x2="39.773" y2="5.033" gradientUnits="userSpaceOnUse"><stop offset="0" stop-color="#FC8C5F"/><stop offset="1" stop-color="#FA7846"/></linearGradient><linearGradient id="paint2_linear_1787_720" x1="6.884" y1="4.521" x2="25.108" y2="4.521" gradientUnits="userSpaceOnUse"><stop offset="0" stop-color="#FC8C5F"/><stop offset="1" stop-color="#FA7846"/></linearGradient></defs></svg>