<svg width="50" height="38" fill="none" xmlns="http://www.w3.org/2000/svg"><path d="M25.818 24.743c2.91-2.944 5.99-5.734 9.124-8.479a242.644 242.644 0 014.753-4.069c1.582-1.358 3.233-2.655 4.847-3.984l.879-.723.938.714A101.89 101.89 0 0148.54 9.9l.912.735-.781.795c-1.442 1.463-2.841 2.957-4.317 4.397-1.461 1.451-2.919 2.904-4.424 4.325-2.99 2.855-6.04 5.67-9.285 8.351 2.417-3.245 5.031-6.356 7.704-9.427 1.325-1.542 2.7-3.052 4.07-4.565 1.356-1.522 2.79-2.992 4.18-4.49l.132 1.528a104.68 104.68 0 01-2.177-1.701l1.817-.01c-1.658 1.291-3.281 2.614-4.972 3.875a255.458 255.458 0 01-5.066 3.79c-3.41 2.495-6.877 4.944-10.514 7.24z" fill="url(#paint0_linear_1787_770)"/><path d="M27.49 30.814c.312.623.234 1.366.029 2.03a6.325 6.325 0 01-1.037 1.901c-.932 1.17-2.26 2.154-3.906 2.734-1.634.54-3.519.707-5.268.277a12.178 12.178 0 01-4.545-2.032l-2.018-1.471 2.58-.474c1.127-.208 2.178-.617 2.92-1.265.366-.328.663-.712.906-1.145.23-.44.356-.935.454-1.45v.053a2.63 2.63 0 01.692-1.64c.396-.466 1.031-.783 1.609-.924 1.18-.293 2.314-.149 3.347.11-1.069.091-2.13.305-2.92.711-.768.4-1.072 1.088-.933 1.682v.054a5.925 5.925 0 01-.24 1.975 4.83 4.83 0 01-1.113 1.87c-1.05 1.135-2.579 1.835-4.122 2.152l.56-1.945a11.212 11.212 0 003.543 1.614 7.658 7.658 0 003.819.068c1.27-.27 2.5-.901 3.543-1.716.516-.416.995-.88 1.377-1.406.38-.523.712-1.1.722-1.763z" fill="url(#paint1_linear_1787_770)"/><path d="M28.48 30.48a20.801 20.801 0 01-2.886-1.34 30.903 30.903 0 01-2.628-1.578l.549.246-.034-.004-.21-.023-.33-.215-.114-.072-.904-.584.826-.879a41.671 41.671 0 012.084-2.055l.909-.843.988.78c1.6 1.26 3.12 2.595 4.457 4.096l.54.607-.496.344c-.98.682-2.024 1.183-2.752 1.52zm0 0c.716-.98 1.12-1.797 1.584-2.433l.044.95c-1.887-1-3.587-2.172-5.2-3.422l1.899-.064a43.92 43.92 0 01-2.26 1.917l-.078-1.463.096.088-.541-.238.032.009.407.112.142.134c1.435 1.337 2.786 2.752 3.874 4.41z" fill="url(#paint2_linear_1787_770)"/><path opacity=".2" d="M18.424 18.889c4.299 0 7.785-3.7 7.785-8.264 0-4.565-3.485-8.264-7.785-8.264-4.299 0-7.785 3.699-7.785 8.264 0 4.565 3.486 8.264 7.785 8.264z" fill="url(#paint3_linear_1787_770)"/><path d="M16.972 17.286c2.043.057 3.89-1.32 4.85-2.96.987-1.653 1.518-3.322 1.726-5.15.201-1.79-.077-3.952-1.403-5.491-1.29-1.532-3.342-2.24-5.173-1.928-1.838.305-3.406 1.29-4.534 2.606-1.12 1.356-1.655 3.084-1.7 4.813-.029 1.742.453 3.466 1.411 5.118.942 1.654 2.786 3.013 4.823 2.992zm0 .308c-2.045-.008-4.25-.428-6.186-1.85a7.675 7.675 0 01-2.304-2.832c-.536-1.148-.818-2.441-.844-3.735-.058-2.606 1.085-5.175 2.86-6.873C12.246.545 14.73-.25 16.974.069c2.252.296 4.248 1.369 5.835 2.913 1.57 1.513 2.969 3.652 3.157 6.194.223 2.506-.922 5.135-2.834 6.538-1.918 1.435-4.119 1.837-6.16 1.88z" fill="url(#paint4_linear_1787_770)"/><path d="M26.211 23.076c-1.444-.333-2.851-.509-4.23-.427-1.323.079-2.853.315-4.273.396-1.445.142-2.89.174-4.335.258-1.365.067-2.586.25-3.817.68-2.43.84-4.603 2.5-6.2 4.728-.786 1.119-1.47 2.369-1.916 3.747-.5 1.36-.697 2.861-1.009 4.412-.331-1.512-.529-3.102-.382-4.744a12.84 12.84 0 011.397-4.707c1.508-2.936 4.12-5.323 7.207-6.363 1.52-.529 3.195-.726 4.72-.663 1.446.083 2.89.116 4.336.257 1.47.127 2.836.215 4.396.501 1.499.349 2.926.973 4.106 1.925z" fill="url(#paint5_linear_1787_770)"/><defs><linearGradient id="paint0_linear_1787_770" x1="24.894" y1="17.995" x2="49.471" y2="17.995" gradientUnits="userSpaceOnUse"><stop offset="0" stop-color="#FC8C5F"/><stop offset="1" stop-color="#FA7846"/></linearGradient><linearGradient id="paint1_linear_1787_770" x1="10.719" y1="32.623" x2="28.888" y2="32.623" gradientUnits="userSpaceOnUse"><stop offset="0" stop-color="#FC8C5F"/><stop offset="1" stop-color="#FA7846"/></linearGradient><linearGradient id="paint2_linear_1787_770" x1="21.741" y1="26.807" x2="32.548" y2="26.807" gradientUnits="userSpaceOnUse"><stop offset="0" stop-color="#FC8C5F"/><stop offset="1" stop-color="#FA7846"/></linearGradient><linearGradient id="paint3_linear_1787_770" x1="10.64" y1="10.625" x2="26.209" y2="10.625" gradientUnits="userSpaceOnUse"><stop offset="0" stop-color="#FC8C5F"/><stop offset="1" stop-color="#FA7846"/></linearGradient><linearGradient id="paint4_linear_1787_770" x1="7.737" y1="8.797" x2="26.209" y2="8.797" gradientUnits="userSpaceOnUse"><stop offset="0" stop-color="#FC8C5F"/><stop offset="1" stop-color="#FA7846"/></linearGradient><linearGradient id="paint5_linear_1787_770" x1="-1.022" y1="28.625" x2="26.82" y2="28.625" gradientUnits="userSpaceOnUse"><stop offset="0" stop-color="#FC8C5F"/><stop offset="1" stop-color="#FA7846"/></linearGradient></defs></svg>