<svg width="10" height="6" viewBox="0 0 10 6" fill="none" xmlns="http://www.w3.org/2000/svg">
<path d="M8.54977 0.647845C8.49397 0.592041 8.42979 0.564139 8.35725 0.564139C8.2847 0.564139 8.22053 0.592041 8.16472 0.647845L4.8751 3.93747L1.58548 0.647845C1.52968 0.592041 1.4655 0.564139 1.39296 0.564139C1.32042 0.564139 1.25624 0.592041 1.20044 0.647845L0.781911 1.06637C0.726107 1.12218 0.698206 1.18635 0.698206 1.25889C0.698206 1.33144 0.726107 1.39561 0.781911 1.45142L4.68258 5.35209C4.73838 5.40789 4.80256 5.43579 4.8751 5.43579C4.94765 5.43579 5.01182 5.40789 5.06763 5.35209L8.9683 1.45142C9.0241 1.39561 9.052 1.33144 9.052 1.25889C9.052 1.18635 9.0241 1.12218 8.9683 1.06637L8.54977 0.647845Z" fill="#1E2533"/>
</svg>
