<svg width="19" height="18" viewBox="0 0 19 18" fill="none" xmlns="http://www.w3.org/2000/svg">
<path fill-rule="evenodd" clip-rule="evenodd" d="M0 1.5H2.09546C2.35587 1.5022 2.57858 1.66724 2.65714 1.89917L6.02914 11.3208C6.13586 11.6189 6.41849 11.8181 6.73526 11.8181H16.2051C16.5441 11.8181 16.8409 11.5906 16.9292 11.2632L18.7241 4.60645C18.7849 4.3811 18.7373 4.14038 18.5954 3.95508C18.4535 3.76978 18.2334 3.66113 18 3.66113H4.88095L4.07571 1.41138C3.78674 0.567139 2.99118 0.00512695 2.10236 0H0V1.5ZM7.26343 10.3181L5.41779 5.16113H17.021L15.6305 10.3181H7.26343ZM7.68381 17.3284C8.61377 17.3284 9.36761 16.5833 9.36761 15.6643C9.36761 14.7451 8.61377 14 7.68381 14C6.75388 14 6 14.7451 6 15.6643C6 16.5833 6.75388 17.3284 7.68381 17.3284ZM15.5 17.3284C16.43 17.3284 17.1838 16.5833 17.1838 15.6643C17.1838 14.7451 16.43 14 15.5 14C14.5701 14 13.8162 14.7451 13.8162 15.6643C13.8162 16.5833 14.5701 17.3284 15.5 17.3284Z" fill="white"/>
</svg>
