<svg width="23" height="18" viewBox="0 0 23 18" fill="none" xmlns="http://www.w3.org/2000/svg">
<path fill-rule="evenodd" clip-rule="evenodd" d="M11.6246 1.92773C10.2081 1.92773 8.79555 2.47178 7.71503 3.57028C6.63586 4.66763 6.29116 6.40327 6.35593 8.04451C6.37222 8.45718 6.05182 8.80536 5.63923 8.82337C3.58097 8.91322 1.88281 10.3942 1.88281 12.3185C1.88281 14.4028 3.54255 16.0722 5.56268 16.0722H16.9871C19.3886 16.0722 21.3664 14.0792 21.3664 11.6074C21.3664 9.47546 19.6262 7.81692 17.455 7.45846C17.1393 7.40633 16.8914 7.15962 16.8378 6.84415C16.6228 5.57894 16.3118 4.35326 15.5417 3.57033C14.461 2.47156 13.0422 1.92773 11.6246 1.92773ZM6.64559 2.51847C8.01875 1.12243 9.82136 0.427734 11.6246 0.427734C13.4268 0.427734 15.2363 1.12076 16.6111 2.51847C17.5989 3.52275 17.9984 4.9194 18.2252 6.08733C20.7148 6.708 22.8664 8.762 22.8664 11.6074C22.8664 14.8841 20.2404 17.5722 16.9871 17.5722H5.56268C2.69084 17.5722 0.382812 15.2077 0.382812 12.3185C0.382812 9.66678 2.47702 7.80633 4.85181 7.40191C4.8931 5.74091 5.32919 3.85706 6.64555 2.51852L6.64559 2.51847ZM12.3606 8.39705V13.5037C12.3606 13.9179 12.0248 14.2537 11.6106 14.2537C11.1964 14.2537 10.8606 13.9179 10.8606 13.5037V8.42291L9.25565 9.90629C8.95146 10.1874 8.47696 10.1688 8.19581 9.86457C7.91467 9.56038 7.93335 9.08587 8.23754 8.80473L10.8008 6.43563C10.801 6.43543 10.8013 6.43523 10.8015 6.43503C10.91 6.33438 11.0427 6.24229 11.2089 6.18325C11.3527 6.13214 11.4854 6.11894 11.5895 6.11691C11.5965 6.11672 11.6036 6.11662 11.6106 6.11662C11.6117 6.11662 11.6128 6.11663 11.6139 6.11663C11.6185 6.11661 11.623 6.11661 11.6275 6.11663L11.6389 6.11667L11.6389 6.11676C11.9402 6.12248 12.2406 6.24271 12.4479 6.43512C12.4483 6.43552 12.4487 6.43591 12.4491 6.43631L15.0117 8.80473C15.3159 9.08587 15.3346 9.56038 15.0534 9.86457C14.7723 10.1688 14.2978 10.1874 13.9936 9.90629L12.3606 8.39705Z" fill="#FC8C5F"/>
</svg>
