<svg width="31" height="32" viewBox="0 0 31 32" fill="none" xmlns="http://www.w3.org/2000/svg">
<path fill-rule="evenodd" clip-rule="evenodd" d="M16.2619 1C16.2619 0.585786 15.9261 0.25 15.5119 0.25C15.2954 0.25 15.1004 0.3417 14.9635 0.488372L12.725 1.46138C12.4843 1.34186 12.2295 1.25242 11.9679 1.19491L11.9679 1.1949L11.9641 1.19408C11.7797 1.15456 11.5993 1.13367 11.4256 1.12408L11.4229 1.12395C11.3414 1.11974 11.2637 1.11925 11.195 1.11985L11.1752 1.12029C10.7641 1.13478 10.3493 1.21887 9.95414 1.38999L9.95334 1.39034C9.07162 1.77338 8.39089 2.5418 8.11772 3.46402L8.11753 3.46466L8.8366 3.67749L8.11829 3.46377L12.725 1.46138C12.8918 1.54422 13.0519 1.6415 13.2028 1.75262C13.2026 1.75246 13.2024 1.75231 13.2022 1.75215L12.7585 2.35683L13.2032 1.75293C13.2031 1.75282 13.203 1.75272 13.2028 1.75262C13.3066 1.82881 13.4014 1.90849 13.4888 1.98881L13.4895 1.98942C13.5486 2.04382 13.6222 2.11531 13.6944 2.20301L13.1151 2.6794L13.6944 2.20305C13.898 2.45067 14.0451 2.72247 14.1557 2.93305L14.1563 2.93436C14.2546 3.12243 14.3448 3.31204 14.429 3.50083L12.8813 3.73525C12.8634 3.6997 12.8454 3.66439 12.827 3.62931C12.719 3.42351 12.6326 3.27351 12.5358 3.15579L12.5358 3.15575C12.5261 3.14401 12.5088 3.12548 12.4737 3.09308C12.42 3.04386 12.3676 3.00027 12.3148 2.96151L12.3137 2.96073C12.1185 2.81693 11.89 2.71387 11.6478 2.66035C11.5545 2.64048 11.4544 2.62801 11.3444 2.62189C11.3074 2.62002 11.2662 2.61942 11.2184 2.61971C10.9796 2.62919 10.7549 2.67792 10.5507 2.76626C10.0754 2.97285 9.70281 3.39386 9.55585 3.89038L9.55555 3.8914C9.52106 4.00732 9.49862 4.12745 9.4885 4.24911L7.98321 4.4771C7.99203 4.86116 8.06876 5.24085 8.20769 5.5967L8.20803 5.59756C8.35704 5.97784 8.57698 6.32786 8.85426 6.62762L8.85424 6.62764L8.8586 6.63228C8.89392 6.66982 8.94218 6.72029 8.99926 6.77211L9.00081 6.7735C9.11089 6.87287 9.22334 6.95139 9.3148 7.0115C9.45678 7.10487 9.59998 7.18714 9.73858 7.26115L9.73911 7.26143C10.024 7.41331 10.3142 7.54686 10.6009 7.66827H1C0.585786 7.66827 0.25 8.00406 0.25 8.41827V13.9367C0.25 14.3509 0.585786 14.6867 1 14.6867H2.43632V30.9998C2.43632 31.414 2.77211 31.7498 3.18632 31.7498H16.068H16.1047H27.3788C27.793 31.7498 28.1288 31.414 28.1288 30.9998V14.6867H29.5651C29.9793 14.6867 30.3151 14.3509 30.3151 13.9367V8.41827C30.3151 8.00406 29.9793 7.66827 29.5651 7.66827H22.1729C22.276 7.54456 22.3694 7.4127 22.4519 7.27394C22.6351 6.96661 22.7641 6.62778 22.8319 6.27679L22.832 6.27631C22.9141 5.84975 22.9061 5.40752 22.8046 4.98191L22.8045 4.98126C22.6064 4.15371 22.0569 3.41118 21.2907 2.99842C21.0333 2.85866 20.7561 2.75302 20.463 2.68916L20.4613 2.68879C20.3128 2.6568 20.1688 2.63831 20.0337 2.62695L20.0188 2.62584C19.9373 2.62063 19.856 2.61803 19.7745 2.61803L19.7591 2.61819C19.36 2.62639 18.962 2.7092 18.5885 2.87084L18.0863 2.94691L16.2619 1.03568V1ZM16.2619 3.22323L18.0863 2.94691L18.2055 3.07176C18.0873 3.1487 17.9882 3.23318 17.9176 3.29518L17.9147 3.29766C17.7941 3.40473 17.6852 3.51527 17.5877 3.61968C17.3241 3.90023 17.0888 4.19547 16.8726 4.48017L16.8725 4.48035C16.66 4.76033 16.4573 5.04531 16.2619 5.3314V3.22323ZM16.2619 3.22323L14.7619 3.45042V1C14.7619 0.802246 14.8384 0.622369 14.9635 0.488372L15.5119 0.25L16.2619 1.03568V3.22323ZM22.4519 7.27394L22.4522 7.27342L21.8075 6.89025L22.4516 7.27447L22.4519 7.27394ZM9.3148 7.0115L9.315 7.01163L9.72688 6.38485L9.3148 7.0115ZM9.4885 4.24911C9.48317 4.31311 9.48126 4.37754 9.4828 4.442L9.48281 4.44264C9.48758 4.65019 9.52916 4.85686 9.60481 5.05075C9.68482 5.25478 9.80344 5.44421 9.95336 5.60684C9.97999 5.6351 9.99508 5.65017 10.0067 5.6608C10.0347 5.68589 10.0749 5.71607 10.1388 5.75807L10.139 5.7582C10.2328 5.81989 10.3346 5.87894 10.4452 5.93801L10.0919 6.59958L10.4447 5.93773C10.7893 6.1214 11.1574 6.2803 11.545 6.43368L11.5458 6.43397C12.0062 6.61673 12.4768 6.78353 12.9551 6.94168L12.9554 6.94176C13.3647 7.07728 13.7774 7.20545 14.1932 7.3288C14.1521 7.19097 14.1105 7.05343 14.0682 6.9162L14.0681 6.91579C13.8181 6.10257 13.5538 5.30752 13.2413 4.54015C13.1266 4.25913 13.0097 3.99108 12.8813 3.73525L9.4885 4.24911ZM14.7619 3.45042V4.30504C14.719 4.19438 14.6751 4.08394 14.6303 3.9738L14.6301 3.97323C14.5664 3.81728 14.4998 3.65935 14.429 3.50083L14.7619 3.45042ZM8.11829 3.46377L8.11772 3.46402L8.11783 3.46364L8.11829 3.46377ZM15 13.1867V9.16827H1.75V13.1867H3.17777H3.19463H15ZM15 14.6867V28.2982L4.69484 14.6867H15ZM16.5 28.9907V14.6867H16.5917H25.9818L16.5 28.9907ZM3.93632 30.2498V16.1699L14.5962 30.2498H3.93632ZM26.6288 30.2498H17.465L26.6288 16.4256V30.2498ZM27.3695 13.1867H27.3882H28.8151V9.16827H17.3417V13.1867H27.3695ZM17.38 7.50841C17.1272 7.52089 16.8738 7.53075 16.62 7.53838L21.3457 5.3304C21.3968 5.5454 21.4014 5.77194 21.3591 5.99229C21.3241 6.17328 21.2574 6.34847 21.1634 6.50603L21.1627 6.50708C21.0613 6.67783 20.9268 6.82862 20.7683 6.94921C20.6829 7.01372 20.6333 7.04535 20.5973 7.0625L20.5968 7.06278C20.5496 7.08528 20.4894 7.10738 20.4064 7.13193L20.4064 7.1319L20.4008 7.13363C20.2784 7.17087 20.1483 7.2022 20.0073 7.23119L20.0054 7.23158C19.704 7.29436 19.3924 7.33894 19.0681 7.37634L19.0667 7.37649C18.5131 7.44136 17.9511 7.48058 17.3805 7.50839L17.38 7.50841ZM17.1994 6.62727C17.0021 6.92736 16.8096 7.23124 16.62 7.53838L21.3455 5.32975C21.2428 4.90126 20.9542 4.52071 20.5786 4.31862L20.5757 4.31705C20.4369 4.24162 20.2928 4.18733 20.1445 4.15495C20.0764 4.14034 20.0012 4.12975 19.9156 4.12232C19.8711 4.11961 19.8268 4.11819 19.7823 4.11804C19.5727 4.12328 19.37 4.16709 19.1843 4.24746L19.1842 4.24748C19.1072 4.2808 19.0585 4.30618 19.0255 4.32776L19.0239 4.32884C18.9992 4.34485 18.966 4.37083 18.9088 4.42103C18.8355 4.48611 18.7618 4.56015 18.6831 4.64444L18.6814 4.6462C18.4699 4.87125 18.2708 5.11925 18.0673 5.38723C17.7661 5.78403 17.4809 6.19922 17.1994 6.62727ZM20.3094 8.70045L20.3104 8.70026L20.3113 8.70006L20.1584 7.96582L20.3094 8.70045Z" fill="#FC8C5F"/>
</svg>
