<svg width="18" height="21" viewBox="0 0 18 21" fill="none" xmlns="http://www.w3.org/2000/svg">
<path fill-rule="evenodd" clip-rule="evenodd" d="M8.86153 2.06396C7.58179 2.06396 6.55664 3.08911 6.55664 4.36885V6.59024C6.55664 7.86998 7.58179 8.89513 8.86153 8.89513C10.1413 8.89513 11.1664 7.86998 11.1664 6.59024V4.36885C11.1664 3.08911 10.1413 2.06396 8.86153 2.06396ZM5.05664 4.36885C5.05664 2.26068 6.75336 0.563965 8.86153 0.563965C10.9697 0.563965 12.6664 2.26068 12.6664 4.36885V6.59024C12.6664 8.69841 10.9697 10.3951 8.86153 10.3951C6.75336 10.3951 5.05664 8.69841 5.05664 6.59024V4.36885ZM1.87958 19.1686H16.12C15.7425 15.3929 13.0461 12.6156 10.0004 12.6156H7.97524C4.95341 12.6156 2.25638 15.3916 1.87958 19.1686ZM0.33603 19.9068C0.410245 15.1808 3.70291 11.1156 7.97524 11.1156H10.0004C14.2955 11.1156 17.5885 15.1791 17.6637 19.9067C17.6669 20.1076 17.5894 20.3015 17.4484 20.4447C17.3074 20.588 17.1148 20.6686 16.9138 20.6686H1.08594C0.884984 20.6686 0.692436 20.588 0.55146 20.4448C0.410485 20.3016 0.332875 20.1078 0.33603 19.9068Z" fill="#FA7846"/>
</svg>
