<svg width="14" height="15" viewBox="0 0 14 15" fill="none" xmlns="http://www.w3.org/2000/svg">
<path d="M7.01562 4.00684C5.01562 4.00684 3.42188 5.63184 3.42188 7.60059C3.42188 9.60059 5.01562 11.1943 7.01562 11.1943C8.98438 11.1943 10.6094 9.60059 10.6094 7.60059C10.6094 5.63184 8.98438 4.00684 7.01562 4.00684ZM7.01562 9.94434C5.73438 9.94434 4.67188 8.91309 4.67188 7.60059C4.67188 6.31934 5.70312 5.28809 7.01562 5.28809C8.29688 5.28809 9.32812 6.31934 9.32812 7.60059C9.32812 8.91309 8.29688 9.94434 7.01562 9.94434ZM11.5781 3.88184C11.5781 3.41309 11.2031 3.03809 10.7344 3.03809C10.2656 3.03809 9.89062 3.41309 9.89062 3.88184C9.89062 4.35059 10.2656 4.72559 10.7344 4.72559C11.2031 4.72559 11.5781 4.35059 11.5781 3.88184ZM13.9531 4.72559C13.8906 3.60059 13.6406 2.60059 12.8281 1.78809C12.0156 0.975586 11.0156 0.725586 9.89062 0.663086C8.73438 0.600586 5.26562 0.600586 4.10938 0.663086C2.98438 0.725586 2.01562 0.975586 1.17188 1.78809C0.359375 2.60059 0.109375 3.60059 0.046875 4.72559C-0.015625 5.88184 -0.015625 9.35059 0.046875 10.5068C0.109375 11.6318 0.359375 12.6006 1.17188 13.4443C2.01562 14.2568 2.98438 14.5068 4.10938 14.5693C5.26562 14.6318 8.73438 14.6318 9.89062 14.5693C11.0156 14.5068 12.0156 14.2568 12.8281 13.4443C13.6406 12.6006 13.8906 11.6318 13.9531 10.5068C14.0156 9.35059 14.0156 5.88184 13.9531 4.72559ZM12.4531 11.7256C12.2344 12.3506 11.7344 12.8193 11.1406 13.0693C10.2031 13.4443 8.01562 13.3506 7.01562 13.3506C5.98438 13.3506 3.79688 13.4443 2.89062 13.0693C2.26562 12.8193 1.79688 12.3506 1.54688 11.7256C1.17188 10.8193 1.26562 8.63184 1.26562 7.60059C1.26562 6.60059 1.17188 4.41309 1.54688 3.47559C1.79688 2.88184 2.26562 2.41309 2.89062 2.16309C3.79688 1.78809 5.98438 1.88184 7.01562 1.88184C8.01562 1.88184 10.2031 1.78809 11.1406 2.16309C11.7344 2.38184 12.2031 2.88184 12.4531 3.47559C12.8281 4.41309 12.7344 6.60059 12.7344 7.60059C12.7344 8.63184 12.8281 10.8193 12.4531 11.7256Z" fill="white"/>
</svg>
