<svg width="16" height="20" viewBox="0 0 16 20" fill="none" xmlns="http://www.w3.org/2000/svg">
<path fill-rule="evenodd" clip-rule="evenodd" d="M5.19876 2.28243C5.17482 2.29455 5.14951 2.30597 5.12283 2.31636L2.84517 3.83481C2.70633 3.93808 2.52959 4.18295 2.42873 4.66707C2.32829 5.14921 2.32064 5.79712 2.45799 6.57542L2.45923 6.58245L2.4592 6.58246C2.74088 8.27256 3.49956 10.3672 4.73914 12.2743C6.00192 14.217 7.43799 15.8337 8.83756 16.8601C8.85006 16.8692 8.86227 16.8788 8.87417 16.8887C9.35637 17.2905 9.93534 17.549 10.5605 17.7306C10.8373 17.7796 11.1265 17.7328 11.376 17.6236L13.5673 15.8134L13.6072 15.7735L10.4869 12.9457L10.319 13.1137C10.2939 13.1388 10.267 13.1621 10.2386 13.1834C9.4923 13.7431 8.42845 13.5472 7.89365 12.8342C7.88532 12.8231 7.87731 12.8117 7.86961 12.8002C7.73273 12.5949 7.5866 12.3941 7.42692 12.1747C7.36583 12.0907 7.30275 12.004 7.23745 11.9133C7.01359 11.6024 6.77606 11.2607 6.56038 10.8861C6.14737 10.2643 5.73062 9.53465 5.41337 8.79438L5.40637 8.77748C5.05928 7.90975 5.43169 7.06852 6.05121 6.60387L6.05122 6.60386L6.4497 6.30501C6.45627 6.30008 6.46291 6.29527 6.46963 6.29057L5.19876 2.28243ZM6.48578 6.34143C6.48585 6.34217 6.48591 6.34325 6.48591 6.34464C6.48591 6.34749 6.48564 6.34903 6.48563 6.34905C6.48563 6.34907 6.48587 6.34767 6.48685 6.34465L6.48704 6.34521C6.48698 6.34502 6.48691 6.34483 6.48685 6.34464M6.62434 1.81559C6.40468 0.996243 5.60122 0.637017 4.88865 0.783383C4.84999 0.788605 4.81088 0.796535 4.77162 0.807527C4.69146 0.82997 4.62153 0.86213 4.5619 0.897904C4.53547 0.913764 4.51192 0.929822 4.49132 0.94507C4.45685 0.961101 4.42352 0.979794 4.39163 1.00105L2.00073 2.59499C1.99402 2.59947 1.98738 2.60405 1.98082 2.60873C1.42339 3.0069 1.10663 3.65859 0.960263 4.36114C0.811849 5.07353 0.819283 5.91867 0.980189 6.83255C1.29668 8.72813 2.13173 11.0152 3.48148 13.0917C4.80375 15.126 6.3495 16.8907 7.93221 18.0562C8.63279 18.6343 9.42955 18.9676 10.1804 19.1822C10.1999 19.1877 10.2195 19.1925 10.2394 19.1964C10.9245 19.3335 11.5918 19.1949 12.1165 18.9326C12.1672 18.9072 12.215 18.8762 12.2587 18.84L14.5501 16.9472C14.5684 16.9321 14.586 16.9161 14.6028 16.8993L14.7024 16.7997L14.2128 16.3102L14.7024 16.7997C14.9723 16.5298 15.1462 16.1713 15.1462 15.7713C15.1462 15.3713 14.9723 15.0128 14.7024 14.7429C14.6937 14.7342 14.6848 14.7257 14.6757 14.7175L11.4982 11.8379C11.0923 11.4467 10.3153 11.2314 9.67157 11.6604C9.63044 11.6878 9.59211 11.7193 9.55716 11.7542L9.31486 11.9965C9.29289 12.0054 9.2615 12.0109 9.22076 12.0044C9.16656 11.9959 9.12522 11.9704 9.10082 11.9429C8.94983 11.7179 8.78319 11.489 8.62335 11.2694C8.56592 11.1904 8.50937 11.1127 8.45474 11.0369C8.2348 10.7314 8.02907 10.4331 7.84974 10.1193C7.8412 10.1043 7.83214 10.0897 7.82259 10.0753C7.44527 9.50935 7.07294 8.85651 6.79654 8.21388C6.76698 8.13615 6.76999 8.0719 6.78934 8.01386C6.81134 7.94785 6.8622 7.87063 6.95122 7.80386L7.27598 7.5603C7.62108 7.39468 7.81917 7.09111 7.91007 6.81841C8.01051 6.51709 8.01119 6.17888 7.91211 5.87705L6.62434 1.81559Z" fill="#E3AC9C"/>
</svg>
