<svg width="93" height="13" fill="none" xmlns="http://www.w3.org/2000/svg"><path d="M13.827 12.205V6.997c0-1.964-1.23-3.287-3.211-3.304A3.143 3.143 0 007.748 5.17a2.984 2.984 0 00-2.696-1.478 2.686 2.686 0 00-2.386 1.235v-1.04H.889v8.318h1.794V7.598c0-1.444.784-2.208 1.997-2.208 1.214 0 1.776.781 1.776 2.19v4.625H8.24V7.598c0-1.444.819-2.208 1.998-2.208 1.18 0 1.793.781 1.793 2.19v4.625h1.797zM40.36 3.894h-2.901v-2.52h-1.794v2.52H34.01v1.652h1.656v3.788c0 1.93.733 3.079 2.833 3.079a4.12 4.12 0 002.22-.642l-.512-1.549c-.476.29-1.017.45-1.571.47-.887 0-1.18-.556-1.18-1.39V5.546h2.901l.004-1.652zm15.146-.208a2.398 2.398 0 00-2.15 1.218v-1.01h-1.76v8.31h1.776V7.547c0-1.389.58-2.138 1.742-2.138a2.85 2.85 0 011.112.208l.545-1.705a3.729 3.729 0 00-1.265-.225zm-22.898.868a6.02 6.02 0 00-3.331-.868c-2.066 0-3.41 1.01-3.41 2.659 0 1.357.99 2.19 2.817 2.45l.835.122c.971.139 1.435.4 1.435.868 0 .642-.648 1.01-1.861 1.01a4.297 4.297 0 01-2.727-.868l-.808 1.406a5.812 5.812 0 003.535 1.08c2.355 0 3.722-1.132 3.722-2.711 0-1.462-1.077-2.225-2.85-2.486l-.835-.121c-.767-.104-1.384-.26-1.384-.816 0-.608.58-.972 1.555-.972a5.189 5.189 0 012.543.712l.764-1.465zm47.563-.868a2.398 2.398 0 00-2.151 1.218v-1.01h-1.76v8.31h1.777V7.547c0-1.389.58-2.138 1.742-2.138a2.85 2.85 0 011.111.208l.546-1.705a3.729 3.729 0 00-1.265-.225zM57.299 8.049c0 2.52 1.726 4.364 4.354 4.364a4.225 4.225 0 002.935-.993l-.852-1.461a3.543 3.543 0 01-2.134.746c-1.418 0-2.458-1.062-2.458-2.66 0-1.596 1.043-2.64 2.458-2.658.772.008 1.52.27 2.134.746l.852-1.461a4.224 4.224 0 00-2.935-.993c-2.628 0-4.353 1.843-4.353 4.363v.007zm16.63 0V3.884h-1.776v1.01a3.073 3.073 0 00-2.577-1.219c-2.288 0-4.091 1.826-4.091 4.364 0 2.537 1.793 4.364 4.09 4.364a3.073 3.073 0 002.578-1.219v1.007h1.776V8.049zm-6.607 0c0-1.461.938-2.659 2.475-2.659 1.47 0 2.458 1.15 2.458 2.66 0 1.51-.989 2.658-2.458 2.658-1.537 0-2.475-1.2-2.475-2.659zm-21.43-4.363c-2.386 0-4.063 1.774-4.063 4.363 0 2.642 1.742 4.364 4.183 4.364a4.905 4.905 0 003.348-1.167l-.87-1.34a3.849 3.849 0 01-2.386.868c-1.145 0-2.185-.538-2.44-2.034h6.06c.018-.226.035-.451.035-.694 0-2.59-1.59-4.364-3.877-4.364l.01.004zm-.033 1.617c1.145 0 1.878.73 2.066 2.017h-4.231c.187-1.2.903-2.017 2.168-2.017h-.003zm44.54 2.746V.554h-1.777v4.347a3.073 3.073 0 00-2.577-1.219c-2.288 0-4.091 1.826-4.091 4.364s1.793 4.363 4.09 4.363a3.073 3.073 0 002.578-1.218v1.007h1.776V8.049zm2.075 3.388a.513.513 0 01.372.157.524.524 0 010 .742.548.548 0 01-.167.115.528.528 0 11-.198-1.014h-.007zm0 .938a.381.381 0 00.283-.118.418.418 0 00-.126-.67.387.387 0 00-.157-.031.414.414 0 00-.16.03.416.416 0 00-.13.67.4.4 0 00.297.119h-.007zm.031-.66a.216.216 0 01.143.042.14.14 0 01.051.114.133.133 0 01-.04.101.188.188 0 01-.113.049l.157.184h-.123l-.147-.184h-.047v.184h-.103v-.486l.222-.004zm-.12.09v.132h.12a.113.113 0 00.065 0 .055.055 0 00.024-.048.056.056 0 00-.024-.049.115.115 0 00-.065 0l-.12-.035zM83.799 8.05c0-1.461.938-2.659 2.475-2.659 1.47 0 2.458 1.15 2.458 2.66 0 1.51-.988 2.658-2.458 2.658-1.537 0-2.475-1.2-2.475-2.659zm-59.966 0V3.884h-1.776v1.01a3.073 3.073 0 00-2.567-1.208c-2.287 0-4.09 1.826-4.09 4.363 0 2.538 1.793 4.364 4.09 4.364a3.073 3.073 0 002.578-1.219v1.007h1.776l-.01-4.152zm-6.606 0c0-1.461.937-2.659 2.475-2.659 1.469 0 2.458 1.15 2.458 2.66 0 1.51-.989 2.658-2.458 2.658-1.538 0-2.475-1.197-2.475-2.659z" fill="#fff"/></svg>