<svg width="165" height="13" fill="none" xmlns="http://www.w3.org/2000/svg"><path opacity=".5" d="M5.86 12.17c3.117 0 5.636-2.52 5.626-5.625C11.476 3.44 8.976.92 5.86.92 2.766.92.246 3.44.236 6.545c-.01 3.106 2.53 5.626 5.625 5.626zm0-1.235c-2.423 0-4.4-1.977-4.388-4.384.01-2.424 1.976-4.395 4.389-4.395 2.423 0 4.378 1.96 4.389 4.395.01 2.418-1.955 4.384-4.39 4.384zm-3.11-4.39A3.164 3.164 0 005.914 9.71c1.513 0 2.674-1.066 2.876-2.483H7.501c-.149.73-.767 1.247-1.587 1.247a1.928 1.928 0 110-3.857c.82 0 1.55.517 1.694 1.247h1.289C8.695 4.447 7.427 3.38 5.914 3.38A3.164 3.164 0 002.75 6.545zM18.074 12h6.882v-1.172h-5.071v-.085l2.45-2.62c1.875-2.009 2.429-2.947 2.429-4.156 0-1.683-1.364-3.025-3.281-3.025-1.913 0-3.367 1.3-3.367 3.217h1.257c0-1.241.805-2.067 2.067-2.067 1.183 0 2.088.725 2.088 1.875 0 1.007-.591 1.753-1.854 3.132l-3.6 3.942V12zm12.64.15c2.407 0 3.793-2.041 3.793-5.605 0-3.536-1.407-5.603-3.793-5.603S26.92 3.009 26.92 6.545c0 3.564 1.385 5.604 3.793 5.604zm0-1.173c-1.587 0-2.514-1.592-2.514-4.432 0-2.833.937-4.453 2.514-4.453 1.577 0 2.514 1.62 2.514 4.453 0 2.84-.927 4.432-2.514 4.432zM36.53 12h6.882v-1.172h-5.071v-.085l2.45-2.62c1.875-2.009 2.429-2.947 2.429-4.156 0-1.683-1.364-3.025-3.281-3.025-1.913 0-3.367 1.3-3.367 3.217h1.257c0-1.241.805-2.067 2.067-2.067 1.183 0 2.088.725 2.088 1.875 0 1.007-.591 1.753-1.853 3.132l-3.601 3.942V12zM49.448 1.09h-1.321L45.4 2.903v1.342l2.663-1.768h.064V12h1.32V1.09zm7.995 0h-1.385L60.064 12h1.364l4.005-10.91h-1.385l-3.238 9.184h-.128l-3.239-9.183zm11.01 0h-1.32V12h1.32V1.09zM71.55 12l1.097-3.09h4.41L78.156 12h1.385L75.534 1.09H74.17L70.166 12h1.385zm1.513-4.261l1.747-4.922h.085l1.747 4.922h-3.58zM81.239 12h1.321V7.739h2.386c.096 0 .187 0 .277-.006L87.525 12h1.534l-2.467-4.506c1.39-.474 2.04-1.61 2.04-3.058 0-1.928-1.15-3.345-3.707-3.345H81.24V12zm1.321-5.455V2.263h2.322c1.769 0 2.45.863 2.45 2.173s-.681 2.11-2.428 2.11H82.56zM99.612 4.5c-.405-2.237-2.194-3.558-4.39-3.558-2.79 0-4.814 2.152-4.814 5.603 0 3.452 2.024 5.604 4.815 5.604 2.195 0 3.984-1.32 4.39-3.558H98.29c-.32 1.513-1.62 2.322-3.068 2.322-1.982 0-3.537-1.534-3.537-4.368 0-2.833 1.555-4.367 3.537-4.367 1.449 0 2.749.81 3.068 2.322h1.321zm2.582 7.5l1.098-3.09h4.41l1.097 3.09h1.385l-4.005-10.91h-1.364L100.809 12h1.385zm1.513-4.261l1.747-4.922h.085l1.748 4.922h-3.58zm16.827-6.648h-1.3v8.587h-.106l-5.966-8.587h-1.278V12h1.321V3.435h.106L119.256 12h1.278V1.09zm3.091 0h-1.385L126.246 12h1.363l4.006-10.91h-1.385l-3.239 9.184h-.127l-3.239-9.183zM132.824 12l1.097-3.09h4.411l1.097 3.09h1.385l-4.005-10.91h-1.364L131.439 12h1.385zm1.513-4.261l1.747-4.922h.085l1.747 4.922h-3.579zm14.142-3.92h1.279c-.059-1.647-1.577-2.877-3.686-2.877-2.088 0-3.729 1.214-3.729 3.047 0 1.47 1.065 2.343 2.77 2.833l1.342.384c1.151.32 2.173.724 2.173 1.811 0 1.193-1.15 1.982-2.663 1.982-1.3 0-2.45-.576-2.557-1.812h-1.363c.127 1.79 1.576 3.005 3.92 3.005 2.514 0 3.942-1.385 3.942-3.154 0-2.045-1.939-2.706-3.068-3.004l-1.108-.298c-.81-.213-2.11-.64-2.11-1.811 0-1.044.959-1.811 2.408-1.811 1.321 0 2.322.628 2.45 1.704zm11.526 5.645a4.26 4.26 0 004.261-4.26 4.26 4.26 0 00-4.261-4.262 4.26 4.26 0 00-4.261 4.261 4.26 4.26 0 004.261 4.261zm0-1.022a3.237 3.237 0 01-3.239-3.239 3.237 3.237 0 013.239-3.239 3.237 3.237 0 013.239 3.24 3.237 3.237 0 01-3.239 3.238zm-1.492-1.321h.863V5.789h.858l.687 1.332h.948l-.804-1.524c.346-.213.645-.607.645-1.15 0-.853-.725-1.257-1.204-1.257h-1.993v3.93zm.863-1.971V3.829h.821c.202 0 .564.138.564.618 0 .468-.351.703-.586.703h-.799z" fill="#fff"/></svg>