<svg width="76" height="26" fill="none" xmlns="http://www.w3.org/2000/svg"><path d="M39.152 8.548c-.043 3.44 3.023 5.359 5.333 6.5 2.373 1.171 3.17 1.922 3.161 2.97-.018 1.602-1.893 2.309-3.648 2.337-3.061.048-4.841-.838-6.256-1.509l-1.103 5.233c1.42.663 4.049 1.242 6.775 1.267 6.4 0 10.587-3.203 10.61-8.17.024-6.302-8.599-6.651-8.54-9.469.02-.854.824-1.765 2.586-1.997.872-.117 3.279-.207 6.008 1.067l1.07-5.063c-1.467-.542-3.353-1.06-5.701-1.06-6.024 0-10.26 3.246-10.295 7.894zM65.441 1.09c-1.169 0-2.154.691-2.593 1.752l-9.142 22.133h6.395l1.273-3.567h7.814l.739 3.566h5.636L70.644 1.09h-5.203zm.894 6.452l1.846 8.969h-5.055l3.21-8.969zM31.4 1.09l-5.04 23.884h6.093L37.49 1.09H31.4zm-9.015 0l-6.343 16.257-2.566-13.823c-.3-1.543-1.49-2.434-2.81-2.434H.296l-.145.693c2.129.469 4.547 1.224 6.013 2.032.896.494 1.152.926 1.447 2.099l4.86 19.06h6.44L28.782 1.09h-6.399z" fill="#fff"/></svg>