<svg width="175" height="68" fill="none" xmlns="http://www.w3.org/2000/svg"><g clip-path="url(#clip0_183_346)"><path d="M30.226 7.224h33.102v52.784H7.158V8.09l7.285 10.298L30.226 7.224z" fill="#D8D1C1"/><path d="M34.268 10.223c0 5.43-1.77 10.46-4.783 14.585a25.84 25.84 0 01-5.013 5.158 26.595 26.595 0 01-12.934 5.373L8.035 33.1l-.17-.107v-22.69l6.412 9.064L30.444 7.93h3.717c.07.756.107 1.521.107 2.294zM6.454 32.09l-3.418-2.184v5.212a27.055 27.055 0 01-1.517-.327V1.518h.133l4.803 6.79-.001 23.782zM32.44 6.52l1.38-.976c.047.243.09.488.13.733l.038.243H32.44z" fill="#66C0FF"/><path d="M49.658 14.022a6.205 6.205 0 1012.41 0 6.205 6.205 0 00-12.41 0z" fill="#CB6362"/><path d="M35.509 2.629l-.288-.406H3.867l10.744 15.19L30.837 5.934v-.003l2.707-1.916.002.002 1.963-1.39z" fill="#F2EFEA"/><path d="M20.479 41.057a26.415 26.415 0 014.255-9.72 26.703 26.703 0 015.07-5.407 26.453 26.453 0 0116.658-5.87c.778 0 1.547.034 2.306.099a26.427 26.427 0 0114.56 5.942 26.708 26.708 0 014.123 4.237v33.857H45.816l3.546-4.573-1.523-1.076-12.309-7.869.251-.014.339-.022.34-.025.34-.028.34-.032.34-.034.34-.039.339-.04.34-.047.338-.05.338-.052.336-.058.334-.06.151-.03.153-.032.154-.034.154-.037.155-.039.156-.041.157-.044.156-.045.157-.048.158-.049.158-.052.158-.053.16-.054.158-.057.16-.059.159-.06.16-.06.159-.063.159-.064.16-.066.157-.066.158-.07.158-.069.157-.07.157-.072.156-.073.157-.074.154-.074.154-.076.154-.077.151-.077.152-.078.15-.079.148-.08.149-.079.146-.08.146-.08.143-.082.143-.082.14-.082.14-.082.138-.083.136-.082.136-.082.133-.084.131-.082.129-.083.127-.082.125-.082.124-.083.12-.082.119-.081.116-.081.115-.08.111-.08.109-.08.106-.079.104-.078.1-.077.099-.077.096-.076.092-.074.09-.074.087-.072c1.588-1.349 5.607-6.261 5.297-6.423l-.017-.01-.024-.013-.03-.016-.035-.02-.041-.022-.047-.025-.051-.028-.057-.03-.063-.034-.068-.036-.072-.038-.078-.041-.082-.043-.086-.045-.09-.048-.096-.049-.1-.052-.103-.053-.108-.054-.111-.057-.114-.059-.119-.06-.122-.06-.125-.063-.128-.064-.132-.064-.134-.065-.136-.066-.14-.066-.142-.068-.145-.068-.147-.069-.149-.069-.147-.07-.153-.07-.155-.07-.157-.069-.158-.07-.16-.069-.16-.07-.162-.07-.163-.068-.165-.068-.164-.068-.166-.066-.167-.067-.168-.065-.167-.063-.167-.063-.168-.06-.167-.062-.167-.06-.167-.057-.168-.056-.166-.054-.164-.053-.165-.05-.165-.05-.163-.046-.162-.045-.16-.043-.16-.04-.157-.037-.156-.036a26.33 26.33 0 00-1.286-.242 24.044 24.044 0 00-.83-.113 15.461 15.461 0 00-.808-.076c-.132-.01-.264-.017-.395-.025a19.986 19.986 0 00-.776-.023 16.917 16.917 0 00-1.845.086 10.3 10.3 0 00-.353.042l-.348.049a14.963 14.963 0 00-1.013.191 12.7 12.7 0 00-.652.16l-.319.09a12.374 12.374 0 00-.62.201 20.91 20.91 0 00-.305.11 18.514 18.514 0 00-.884.364c-.193.087-.38.177-.567.27-.093.046-.184.095-.276.143a17.317 17.317 0 00-.802.46c-.088.053-.173.107-.259.161-.085.055-.17.11-.255.168l-.25.171-.248.175-.241.18c-.08.06-.16.12-.238.183l-.234.187-.23.191-.225.194-.222.196-.219.2-.215.204-.211.206-.216.21-.204.212-.2.214-.197.215-.192.218-.188.219-.186.22-.182.222-.18.223-.175.224-.172.226-.169.227-.166.227-.162.228-.16.229-.156.228a29.45 29.45 0 00-1.006 1.604l-5.984-3.825-.475-.304.004-.003z" fill="#EB8E51"/><path d="M49.362 59.623l-3.547 4.574H3.036v-34.29l4.996 3.192 5.498 3.515 7.424 4.746 5.984 3.825a51.624 51.624 0 00-2.482 4.852s5.303.955 11.076.642l12.308 7.868 1.522 1.076z" fill="#D89795"/><path d="M48.803 45.752c-1.809 1.534-5.732 3.814-8.954 4.423-7.125 1.35-15.391-.14-15.391-.14s1.594-3.657 3.488-6.454c3.301-4.88 8.676-9.687 18.02-7.646 3.316.725 7.826 3.227 8.135 3.39.307.165-3.71 5.078-5.298 6.426zm-16.685-1.438c-.722-3.807 1.76-7.472 5.542-8.19 3.782-.716 7.435 1.788 8.157 5.594.722 3.805-1.76 7.472-5.542 8.19-3.782.716-7.434-1.788-8.157-5.594z" fill="#FFEEC0"/><path d="M32.118 44.314c-.722-3.805 1.76-7.472 5.542-8.188 3.782-.716 7.434 1.787 8.157 5.594.722 3.805-1.76 7.472-5.542 8.187-3.782.717-7.435-1.787-8.157-5.593z" fill="#66C0FF"/><path d="M34.971 10.223c0 2.741-.44 5.386-1.254 7.871a25.626 25.626 0 01-3.666 7.13 26.36 26.36 0 01-2.386 2.824 26.922 26.922 0 01-8.49 5.89 27.545 27.545 0 01-6.41 1.928l-.321.055-1.848-1.182c.654-.064 1.3-.15 1.933-.26a25.98 25.98 0 006.08-1.83 25.693 25.693 0 008.05-5.581 25.278 25.278 0 002.26-2.675 24.144 24.144 0 003.46-6.733 23.816 23.816 0 001.184-7.437c0-.653-.026-1.296-.077-1.927a23.629 23.629 0 00-.389-2.795l-.056-.266.908-.643.333-.235a27.373 27.373 0 01.363 1.811c.108.679.192 1.352.245 2.02a26 26 0 01.081 2.035zM3.036 35.83a28.025 28.025 0 01-1.683-.357l-.54-.133V.812h32.35l.173.459.093.248H2.51l.498.705h-.784v32.01c.27.06.54.116.814.168l-.002 1.428zm47.325-21.807c0 1.518.616 2.894 1.612 3.89a5.48 5.48 0 003.89 1.611 5.479 5.479 0 003.889-1.611 5.48 5.48 0 001.611-3.89 5.484 5.484 0 00-1.611-3.89 5.484 5.484 0 00-3.889-1.61 5.49 5.49 0 00-3.89 1.61 5.484 5.484 0 00-1.612 3.89zm.615 4.885a6.888 6.888 0 01-2.023-4.887 6.89 6.89 0 012.023-4.885 6.888 6.888 0 014.887-2.024c1.908 0 3.635.774 4.886 2.024a6.887 6.887 0 012.023 4.885 6.896 6.896 0 01-2.023 4.887 6.887 6.887 0 01-4.886 2.024 6.89 6.89 0 01-4.887-2.024z" fill="#000"/><path d="M69.673 32.507v28.246l-.003.038c-.016.27-.023.43-.033.586-.237 4.336-.276 5.043-4.694 5.043H27.697l-.208-.2a27.8 27.8 0 01-1.887-2.022h1.875c.256.276.519.547.787.814h36.677c3.088 0 3.116-.52 3.292-3.705l.03-.552h-.001V32.708a26.043 26.043 0 00-5.381-6.063 25.856 25.856 0 00-6.654-3.973 25.713 25.713 0 00-7.519-1.811 27.535 27.535 0 00-1.119-.074 26.544 26.544 0 00-1.13-.023c-3.017 0-5.91.515-8.598 1.462a25.776 25.776 0 00-7.619 4.25c-.94.759-1.827 1.58-2.654 2.462a26.18 26.18 0 00-2.282 2.802 25.66 25.66 0 00-4.197 9.72l-.158-.102-1.107-.707a27.15 27.15 0 014.31-9.72 27.484 27.484 0 015.207-5.55 27.228 27.228 0 018.032-4.482 27.244 27.244 0 0110.255-1.516 27.097 27.097 0 019.106 1.985 27.257 27.257 0 017.018 4.193 27.4 27.4 0 013.16 3.053 27.353 27.353 0 012.628 3.52l.11.175.003.198z" fill="#000"/><path d="M68.968 67.233H0V0h70.486v67.233h-1.518zM3.036 64.197H67.45V3.037H3.036v61.16z" fill="#000"/><path d="M32.381 8.137c-.058-.773-.12-1.545-.169-2.318l-.972.686-1.595 1.13c-.037.397-.06.79-.085 1.17-.126 1.897-.353 3.785-.458 5.685-.119 2.11-.178 4.224-.26 6.336-.028.757-.068 1.513-.113 2.27a245.85 245.85 0 00-.282-4.415 235.999 235.999 0 00-.54-6.197c-.1-.996-.217-1.99-.319-2.985a12.143 12.143 0 01-.033-.385l-2.577 1.823c-.608 2.86-.528 5.873-.682 8.773a564.62 564.62 0 00-.257 5.372 275.174 275.174 0 01-.369-4.16c-.143-1.792-.334-3.605-.342-5.402-.005-1.156.102-2.323.093-3.482l-2.182 1.542c-.014.11-.027.22-.043.33-.15 1.064-.307 2.125-.447 3.19a286.512 286.512 0 00-.744 6.291 705.94 705.94 0 00-.817 8.029c.015-.504.027-1.008.036-1.51.041-2.15.052-4.296.157-6.445.105-2.133.248-4.26.36-6.392a144.6 144.6 0 00.114-2.513l-2.973 2.103c-.646 3.194-1.055 6.442-1.573 9.66.016-.18.032-.357.052-.537.219-2.093.548-4.172.813-6.26.108-.85.204-1.704.278-2.559l-2.01 1.422-.584-.826c-.162.871-.303 1.746-.49 2.597a912.43 912.43 0 00-1.86 8.648c-.402 1.91-.823 3.819-1.222 5.733l1.116.713c.97-5.01 2.076-10 3.166-14.984.11-.502.215-1.003.319-1.505-.24 2.53-.664 5.049-.96 7.571-.339 2.881-.38 5.769-.35 8.659.516-.107 1.027-.23 1.531-.366v-.072c.375-2.367.85-4.719 1.292-7.074.529-2.822.898-5.67 1.352-8.505a94.89 94.89 0 01.587-3.327c-.095 2.778-.291 5.554-.439 8.33-.175 3.271-.245 6.557-.29 9.836a26.518 26.518 0 002.86-1.282c.438-4.546.874-9.093 1.412-13.628.057.879.137 1.758.204 2.631.245 3.185.58 6.36.838 9.544a25.834 25.834 0 002.385-1.796c.046-1.078.113-2.157.156-3.23.169-4.129.324-8.265.56-12.39.035-.617.078-1.24.14-1.862a235.64 235.64 0 01.786 8.672c.149 2.07.262 4.14.369 6.213l.036.666a25.943 25.943 0 002.127-2.546c.221-.304.436-.614.645-.928.061-.91.125-1.819.167-2.73.177-3.795.215-7.601.578-11.385l.004.057c.127 1.662.279 3.322.515 4.972.252 1.767.576 3.528.806 5.296.49-1.115.899-2.27 1.22-3.461-.18-1.135-.37-2.27-.529-3.407-.235-1.687-.38-3.385-.508-5.086zM10.196 34.483c.293-5.664.771-11.326 1.2-16.978.077-1.008.178-1.99.315-2.978l-1.686-2.385C8.81 15.31 8.38 18.743 7.934 22.085c-.449 3.367-.944 6.725-1.338 10.097l1.164.745c.17-1.568.361-3.134.567-4.696.285-2.164.616-4.32.917-6.482.267-1.916.511-3.837.866-5.738a45.23 45.23 0 01.31-1.516c-.184 1.1-.37 2.179-.456 3.295-.254 3.283-.489 6.568-.721 9.854-.14 1.989-.284 3.979-.412 5.969l1.365.87z" fill="#000"/><path d="M49.918 60.053l-4.237 5.465H1.804V28.287L21.33 40.769l5.968 3.816a36 36 0 00-.712 1.21l-6.01-3.842L3.213 30.854V64.11h41.782l3.36-4.333-.921-.651.001-.001-13.132-8.395a40.34 40.34 0 002.404-.13l11.51 7.358.028.017 2.123 1.5-.45.579z" fill="#000"/><path d="M7.159 6.52h56.873v54.193H6.454V6.52h.705zm55.463 1.41H7.864v51.374h54.76c-.002 0-.002-51.374-.002-51.374z" fill="#000"/><path d="M69.673 1.517v49.409l-21.478-30.36h-.003L38.535 6.911l.001-.002-2.218-3.136-1.964 1.39v.003l-2.707 1.915-.001-.002-17.37 12.288L1.151.813h68.521l.001.704zM35.51 2.63l-.288-.407H3.867l10.744 15.189L30.837 5.933v-.002l2.707-1.916.002.001 1.963-1.387zm3.006-.407l-1.05.743L39.683 6.1h.003l9.657 13.654-.001.001 18.921 26.748V2.223H38.515z" fill="#000"/><path d="M36.144 43.545l.001-.001a2.768 2.768 0 01.428-2.067 2.747 2.747 0 011.768-1.163l.005-.003v.002a2.733 2.733 0 012.062.435 2.772 2.772 0 011.16 1.776l.002.011a2.767 2.767 0 01-2.197 3.225l-.011.003a2.745 2.745 0 01-2.058-.436 2.784 2.784 0 01-1.159-1.776l-.001-.006zm13.113 2.745c-1.032.876-2.724 1.983-4.586 2.903-1.525.754-3.177 1.388-4.694 1.674-7.255 1.374-15.619-.133-15.643-.136l-.881-.157.358-.818c.002-.004.145-.33.396-.866l-2.084-.975c-.088-.041-.13-.06-.204-.113a.652.652 0 01-.242-.359c-.09-.34.095-.685.416-.771a.586.586 0 01.472.078l2.181 1.021a52.06 52.06 0 011.308-2.468l-2.824-1.726a.728.728 0 01-.154-.117.658.658 0 01-.189-.37c-.053-.348.17-.67.5-.72a.581.581 0 01.459.13l2.84 1.737a28.24 28.24 0 011.58-2.314l-2.283-2.192a.682.682 0 01-.114-.138.643.643 0 01-.103-.401c.022-.35.309-.616.64-.595.172.012.32.099.422.226l2.216 2.128a19.977 19.977 0 012.773-2.728l-1.827-2.624c-.052-.075-.077-.11-.111-.192a.654.654 0 01-.027-.42c.092-.34.425-.543.745-.455a.59.59 0 01.369.305l1.843 2.649a15.959 15.959 0 011.546-.941c.571-.304 1.17-.578 1.798-.813l-.904-2.655c-.04-.117-.072-.193-.082-.31a.653.653 0 01.093-.398c.18-.3.557-.402.841-.228a.59.59 0 01.27.396l.957 2.809a15.616 15.616 0 013.377-.566l-.11-2.817a.752.752 0 01.022-.248.649.649 0 01.193-.323.615.615 0 01.873.024c.114.128.16.292.146.454l.112 2.882c1.044.012 2.146.117 3.306.324l.643-2.843a.757.757 0 01.076-.215.654.654 0 01.277-.273.618.618 0 01.838.251.593.593 0 01.024.48l-.645 2.854c.861.214 1.782.527 2.683.88l1.051-2.752a.88.88 0 01.08-.17.654.654 0 01.348-.281c.33-.113.686.051.792.369a.589.589 0 01-.044.476l-1.08 2.83c.881.382 1.704.773 2.382 1.11l1.214-2.191c.076-.138.124-.248.24-.353a.646.646 0 01.314-.154.62.62 0 01.734.476.595.595 0 01-.11.466l-1.287 2.322c.257.136.45.24.562.3l.089.048c.06.03.114.072.163.117.337.32.256.816-.134 1.418-.202.31-.5.722-.859 1.185-1.261 1.632-3.298 3.978-4.341 4.864zm-3.828.908c1.188-.679 2.22-1.389 2.92-1.983.976-.828 2.92-3.074 4.135-4.648.278-.36.515-.68.69-.937-1.364-.72-4.759-2.437-7.358-3.006a19.894 19.894 0 00-3.309-.447 7.718 7.718 0 014 5.411v.003a7.707 7.707 0 01-1.078 5.607zm-13.54-7.183c-1.319 1.203-2.425 2.578-3.36 3.962-1.311 1.937-2.473 4.286-3.047 5.51 1.756.253 5.846.736 10.172.483a7.724 7.724 0 01-4.227-5.526v-.001a7.71 7.71 0 01.462-4.428zm.92 4.168v.002a6.316 6.316 0 002.636 4.042 6.242 6.242 0 004.698.991v-.001l.005-.001a6.22 6.22 0 004.004-2.638 6.316 6.316 0 00.975-4.728v-.003a6.316 6.316 0 00-2.637-4.041 6.235 6.235 0 00-4.697-.99h-.006a6.226 6.226 0 00-4.004 2.638 6.327 6.327 0 00-.974 4.729z" fill="#000"/><path d="M94.789 30.809l-15.392 2.443 2.444 15.392 15.392-2.443-2.444-15.392z" fill="#EDE4E6"/><path d="M88.33 34.716c.254-.797.634-1.374 1.413-1.374.744 0 1.16.595 1.413 1.374l3.769 11.774h-1.052l-1.213-3.788h-5.835L85.61 46.49h-1.05l3.77-11.774zm-1.232 7.094h5.29l-2.12-6.796c-.108-.37-.253-.742-.525-.742-.27 0-.417.371-.526.742l-2.119 6.796zm12.722-6.686c0-1.188.543-1.634 1.703-1.634h3.371c2.319 0 2.971 1.578 2.971 3.807 0 2.304-.561 3.9-2.825 3.9h-.781v.093l3.697 5.2h-1.215l-3.424-4.866c-.145-.204-.345-.39-.345-.669v-.223c0-.279.163-.428.435-.428h1.576c1.739 0 1.831-1.355 1.831-3.008 0-1.746-.218-2.915-2.102-2.915h-3.189c-.543 0-.725.185-.725.742v11.364h-.978V35.124zm16.344 11.366V34.382h-4.221v-.892h9.42v.892h-4.221V46.49h-.978zM90.305 66.27c-4.113 0-4.837-2.97-4.837-6.498 0-3.53.67-6.5 5.019-6.5h2.915v.892h-2.915c-3.262 0-3.969 2.079-3.969 5.608 0 3.527.635 5.607 3.805 5.607h3.28v.893h-3.298v-.002zm11.419-11.773c.253-.798.633-1.374 1.412-1.374.744 0 1.159.594 1.413 1.374l3.769 11.773h-1.051l-1.214-3.788h-5.835l-1.213 3.788h-1.052l3.771-11.773zm-1.232 7.095h5.289l-2.119-6.797c-.109-.37-.254-.742-.526-.742-.271 0-.417.372-.526.742l-2.118 6.797zm21.271 3.378c0 .874-.381 1.449-1.159 1.449-.579 0-.96-.205-1.268-.947l-4.457-10.975c-.054-.149-.18-.316-.381-.316-.127 0-.308.055-.308.371V66.27h-.978V54.44c0-1.28.978-1.317 1.196-1.317.706 0 1.05.37 1.249.872l4.493 11.031c.073.186.199.335.398.335.235 0 .235-.205.235-.335V53.271h.979v11.7h.001zm9.371.094c.073.26.18.353.308.353.127 0 .235-.093.308-.353l3.441-11.792h1.033l-3.679 12.293c-.109.372-.381.854-1.105.854-.725 0-.997-.483-1.104-.854l-3.679-12.293h1.033l3.444 11.792zm11.942-10.567c.253-.798.633-1.374 1.412-1.374.744 0 1.159.594 1.413 1.374l3.769 11.773h-1.051l-1.214-3.788h-5.835l-1.213 3.788h-1.052l3.771-11.773zm-1.232 7.095h5.289l-2.119-6.797c-.109-.37-.254-.742-.526-.742-.271 0-.417.372-.525.742l-2.119 6.797zm12.376 3.788h4.981c.761 0 1.487-.41 1.487-2.228 0-.854-.327-1.3-1.63-2.1l-2.881-1.782c-1.25-.762-2.156-1.43-2.156-3.064 0-1.858.871-2.934 2.862-2.934h4.258v.892h-4.258c-1.322 0-1.811.556-1.811 2.043 0 .835.218 1.3 1.322 2.023l2.755 1.783c1.358.873 2.591 1.43 2.591 3.139 0 1.597-.579 3.12-2.538 3.12h-4.981v-.893h-.001z" fill="#363634" stroke="#363634" stroke-width="1.2" stroke-miterlimit="10"/><path d="M92.429 18.555c.107.514.358.551.466.551.107 0 .358-.037.466-.55l3.37-17.449h8.318l-5.844 21.857c-.717 2.72-2.367 4.152-6.31 4.152-3.944 0-5.593-1.47-6.31-4.152L80.74 1.107h8.32l3.369 17.448zm17.498 8.266V1.107h8.104v25.714h-8.104zm20.114-22.886c.896-2.828 2.869-3.123 5.737-3.123 2.869 0 4.84.295 5.736 3.123l7.135 22.886h-8.534l-1.255-5.29h-6.167l-1.254 5.29h-8.534l7.136-22.886zm3.657 11.938h4.16l-1.756-6.723c-.036-.22-.144-.55-.323-.55-.179 0-.287.33-.323.55l-1.758 6.723zm18.749-10.726c0-2.571 1.434-4.04 3.945-4.04h11.652c5.737 0 6.454 3.233 6.454 8.743 0 4.041-.502 9.147-4.805 9.147h-.215v.148L175 26.822h-8.676l-3.479-5.95c-.788-1.322-1.291-2.387-1.291-3.857v-.917c0-2.204.394-2.902 2.545-2.902h.143c2.151 0 2.509-.699 2.509-2.903s-.358-2.792-2.509-2.792h-2.473c-1.077 0-1.579.514-1.579 1.616v17.705h-7.744V5.147h.001z" fill="#EB8E51"/></g><defs><clipPath id="clip0_183_346"><path fill="#fff" d="M0 0h175v67.233H0z"/></clipPath></defs></svg>