<svg width="95" height="68" viewBox="0 0 95 68" fill="none" xmlns="http://www.w3.org/2000/svg">
<path d="M15.3918 30.9983L0 33.442L2.44375 48.8339L17.8356 46.3902L15.3918 30.9983Z" fill="#EDE4E6"/>
<path d="M11.6885 17.4531C11.796 17.9669 12.0469 18.0041 12.1545 18.0041C12.262 18.0041 12.5129 17.9669 12.6205 17.4531L15.9914 0.00537109H24.309L18.4647 21.8622C17.7478 24.5812 16.0976 26.0138 12.1545 26.0138C8.21011 26.0138 6.56119 24.5441 5.84426 21.8622L0 0.00537109H8.31898L11.6885 17.4531Z" fill="#EB8E51"/>
<path d="M49.1361 3.13006C50.0322 0.302186 52.0051 0.00744629 54.8728 0.00744629C57.7418 0.00744629 59.7133 0.302186 60.6095 3.13006L67.7442 26.0158H59.2102L57.9556 20.7265H51.7887L50.5341 26.0158H42L49.1361 3.13006ZM52.7937 15.0681H56.9532L55.1967 8.34502C55.1609 8.12463 55.0533 7.79405 54.8741 7.79405C54.6949 7.79405 54.5873 8.12463 54.5515 8.34502L52.7937 15.0681Z" fill="#EB8E51"/>
<path d="M72.0013 4.04514C72.0013 1.4735 73.4352 0.00512695 75.9457 0.00512695H87.5985C93.3352 0.00512695 94.0521 3.23793 94.0521 8.74763C94.0521 12.789 93.5503 17.895 89.2474 17.895H89.0323V18.0424L94.554 25.7201H85.8779L82.3994 19.7697C81.6108 18.4473 81.1076 17.3826 81.1076 15.9129V14.9955C81.1076 12.7916 81.5019 12.0933 83.6527 12.0933H83.7961C85.9469 12.0933 86.3054 11.3949 86.3054 9.19106C86.3054 6.98718 85.9469 6.39903 83.7961 6.39903H81.3227C80.246 6.39903 79.7441 6.91282 79.7441 8.01476V25.7201H72V4.04514H72.0013Z" fill="#EB8E51"/>
<path d="M29 25.719V0.00537109H37.1039V25.719H29Z" fill="#EB8E51"/>
<path d="M19 34.6351C19 33.4468 19.543 33.0007 20.7034 33.0007H24.0742C26.3936 33.0007 27.0455 34.5793 27.0455 36.8084C27.0455 39.1119 26.4839 40.7077 24.2203 40.7077H23.4396V40.8006L27.1358 46.001H25.921L22.497 41.1352C22.3523 40.9307 22.1518 40.7448 22.1518 40.466V40.243C22.1518 39.9642 22.3151 39.8155 22.5873 39.8155H24.1632C25.9024 39.8155 25.994 38.46 25.994 36.8071C25.994 35.0612 25.7763 33.8916 23.8924 33.8916H20.7034C20.1604 33.8916 19.9785 34.0774 19.9785 34.6337V45.9983H19V34.6351Z" fill="#363634" stroke="#363634" stroke-width="1.1999" stroke-miterlimit="10"/>
<path d="M36.2219 46.001V33.8929H32V33.0007H41.4209V33.8929H37.199V46.001H36.2219Z" fill="#363634" stroke="#363634" stroke-width="1.1999" stroke-miterlimit="10"/>
<path d="M8.83658 66.9997C4.72356 66.9997 4 64.0284 4 60.5009C4 56.972 4.66913 54.0007 9.01847 54.0007H11.934V54.8929H9.01847C5.75646 54.8929 5.05016 56.972 5.05016 60.5009C5.05016 64.0284 5.68477 66.1088 8.85517 66.1088H12.1344V67.001H8.83658V66.9997Z" fill="#363634" stroke="#363634" stroke-width="1.1999" stroke-miterlimit="10"/>
<path d="M40.5513 65.8483C40.5513 66.7219 40.1703 67.2968 39.3923 67.2968C38.8134 67.2968 38.4324 67.0923 38.1244 66.3501L33.6675 55.3746C33.6131 55.2259 33.487 55.0586 33.2865 55.0586C33.159 55.0586 32.9785 55.1144 32.9785 55.4303V67.1481H32V55.3188C32 54.0377 32.9785 54.0005 33.1962 54.0005C33.9025 54.0005 34.2464 54.3709 34.4455 54.8727L38.9382 65.9041C39.0113 66.0899 39.1374 66.2386 39.3365 66.2386C39.5715 66.2386 39.5715 66.0342 39.5715 65.9041V54.1492H40.55V65.8483H40.5513Z" fill="#363634" stroke="#363634" stroke-width="1.1999" stroke-miterlimit="10"/>
<path d="M49.4768 65.7926C49.5498 66.0528 49.6573 66.1457 49.7848 66.1457C49.9122 66.1457 50.0198 66.0528 50.0928 65.7926L53.5341 54.0005H54.567L50.8881 66.2944C50.7792 66.6662 50.507 67.1481 49.7835 67.1481C49.0586 67.1481 48.7864 66.6648 48.6789 66.2944L45 54.0005H46.0329L49.4768 65.7926Z" fill="#363634" stroke="#363634" stroke-width="1.1999" stroke-miterlimit="10"/>
<path d="M73.1991 66.108H78.1804C78.9412 66.108 79.6674 65.6991 79.6674 63.8803C79.6674 63.0266 79.3408 62.5805 78.0371 61.7813L75.1561 59.9983C73.9068 59.2362 73 58.5684 73 56.9341C73 55.0767 73.8709 54 75.8624 54H80.1201V54.8922H75.8624C74.5401 54.8922 74.0515 55.4485 74.0515 56.9354C74.0515 57.7705 74.2692 58.2352 75.3738 58.9587L78.1287 60.7418C79.4868 61.614 80.7189 62.1716 80.7189 63.8803C80.7189 65.4774 80.14 67.0002 78.1818 67.0002H73.2005V66.108H73.1991Z" fill="#363634" stroke="#363634" stroke-width="1.1999" stroke-miterlimit="10"/>
<path d="M7.77048 34.3748C8.02406 33.5769 8.40377 33.0007 9.18309 33.0007C9.92657 33.0007 10.3421 33.5955 10.5957 34.3748L14.3649 46.1483H13.3134L12.0999 42.3605H6.26495L5.05149 46.1483H4L7.77048 34.3748ZM6.53843 41.4684H11.8277L9.70883 34.6722C9.59997 34.3018 9.45526 33.9301 9.18309 33.9301C8.91226 33.9301 8.76621 34.3018 8.65734 34.6722L6.53843 41.4684Z" fill="#363634" stroke="#363634" stroke-width="1.1999" stroke-miterlimit="10"/>
<path d="M20.7705 55.3748C21.0241 54.5769 21.4038 54.0007 22.1831 54.0007C22.9266 54.0007 23.3421 54.5955 23.5957 55.3748L27.3649 67.1483H26.3134L25.0999 63.3605H19.2649L18.0515 67.1483H17L20.7705 55.3748ZM19.5384 62.4684H24.8277L22.7088 55.6722C22.6 55.3018 22.4553 54.9301 22.1831 54.9301C21.9123 54.9301 21.7662 55.3018 21.6573 55.6722L19.5384 62.4684Z" fill="#363634" stroke="#363634" stroke-width="1.1999" stroke-miterlimit="10"/>
<path d="M61.7705 55.3746C62.0241 54.5767 62.4038 54.0005 63.1831 54.0005C63.9266 54.0005 64.3421 54.5953 64.5957 55.3746L68.3649 67.1481H67.3134L66.0999 63.3603H60.2649L59.0515 67.1481H58L61.7705 55.3746ZM60.5384 62.4682H65.8277L63.7088 55.672C63.6 55.3016 63.4553 54.9298 63.1831 54.9298C62.9123 54.9298 62.7662 55.3016 62.6573 55.672L60.5384 62.4682Z" fill="#363634" stroke="#363634" stroke-width="1.1999" stroke-miterlimit="10"/>
</svg>
